<svg xmlns="http://www.w3.org/2000/svg" viewBox="0 0 437.45 201.74"><title>about2</title><g id="1991749a-90d5-4c48-a824-5af5dbf9e30a" data-name="Layer 1"><g id="be35b184-2e7a-49c1-b8bb-f330199f898c" data-name="Layer 7"><polygon id="19fead6a-1602-4d30-9879-afe91d01c963" data-name="&lt;Path&gt;" points="1899 1415.68 -350.67 1415.68 879.82 -180.18 1911 -180.18 1899 1415.68" style="fill:#ffe108"/><g id="2f094d30-d648-4c66-a210-0ccea72d1161" data-name="&lt;Group&gt;"><line x1="897.03" y1="-165.92" x2="-319.47" y2="1407.77" style="fill:none;stroke:#05f;stroke-miterlimit:10;stroke-width:7px;stroke-dasharray:12.018494606018066,12.018494606018066"/></g></g></g><g id="fe19caec-6799-4aea-911a-effb1f3099fe" data-name="Layer 9"><rect x="8.11" y="5.33" width="144.6" height="40.56" style="fill:#3c3c44"/><polygon points="361.46 126.48 361.46 104.45 384.5 104.45 384.5 82.43 361.46 82.43 361.46 60.4 27.04 60.4 27.04 192.56 335 192.56 335 170.51 403.5 170.51 403.5 148.51 415.21 148.51 415.21 126.48 361.46 126.48" style="fill:#3c3c44"/><text transform="translate(15.13 34.97)" style="font-size:31.15131950378418px;fill:#fff;font-family:Somatic-Rounded, Somatic">about me</text><text transform="translate(30.16 78.44)" style="font-size:18px;fill:#fff;font-family:rounded-mplus-1c-medium, Rounded M+ 1c">Joshua <tspan x="64.55" y="0" style="letter-spacing:-0.019965277777777776em">P</tspan><tspan x="75.24" y="0" style="letter-spacing:-0.009982638888888888em">a</tspan><tspan x="84.85" y="0" style="letter-spacing:-0.00005425347222222222em">ul </tspan><tspan x="106" y="0" style="letter-spacing:-0.02001953125em">R</tspan><tspan x="116.73" y="0" style="letter-spacing:0.009982638888888888em">o</tspan><tspan x="127.06" y="0">drigu</tspan><tspan x="172.51" y="0" style="letter-spacing:-0.009982638888888888em">e</tspan><tspan x="181.85" y="0">z is a self </tspan><tspan x="269.87" y="0" style="letter-spacing:-0.010036892361111112em">ta</tspan><tspan x="288.46" y="0">ug</tspan><tspan x="309.13" y="0" style="letter-spacing:-0.02001953125em">h</tspan><tspan x="319.28" y="0">t </tspan><tspan x="0" y="21.6">g</tspan><tspan x="10.33" y="21.6" style="letter-spacing:-0.030002170138888888em">r</tspan><tspan x="18.14" y="21.6">aphic designer and </tspan><tspan x="183.11" y="21.6" style="letter-spacing:-0.025010850694444444em">p</tspan><tspan x="193.17" y="21.6">ython p</tspan><tspan x="258.3" y="21.6" style="letter-spacing:-0.02001953125em">r</tspan><tspan x="266.29" y="21.6" style="letter-spacing:0.009982638888888888em">o</tspan><tspan x="276.62" y="21.6">g</tspan><tspan x="286.95" y="21.6" style="letter-spacing:-0.030002170138888888em">r</tspan><tspan x="294.76" y="21.6">ammer</tspan><tspan x="0" y="43.2" style="letter-spacing:-0.030002170138888888em">f</tspan><tspan x="8.62" y="43.2" style="letter-spacing:-0.019965277777777776em">r</tspan><tspan x="16.61" y="43.2" style="letter-spacing:-0.00005425347222222222em">om Northern Vi</tspan><tspan x="147.29" y="43.2" style="letter-spacing:-0.019965277777777776em">r</tspan><tspan x="155.28" y="43.2" style="letter-spacing:-0.00005425347222222222em">ginia, and cur</tspan><tspan x="271.31" y="43.2" style="letter-spacing:-0.019965277777777776em">r</tspan><tspan x="279.3" y="43.2">e</tspan><tspan x="288.82" y="43.2" style="letter-spacing:-0.019965277777777776em">n</tspan><tspan x="298.89" y="43.2" style="letter-spacing:-0.00005425347222222222em">tly </tspan><tspan x="0" y="64.8">pu</tspan><tspan x="20.84" y="64.8" style="letter-spacing:-0.019965277777777776em">r</tspan><tspan x="28.84" y="64.8">suing a B</tspan><tspan x="105.55" y="64.8" style="letter-spacing:-0.010036892361111112em">.S</tspan><tspan x="121" y="64.8" style="letter-spacing:-0.00005425347222222222em">. </tspan><tspan x="131.63" y="64.8" style="letter-spacing:-0.030056423611111112em">a</tspan><tspan x="140.88" y="64.8">t Embr</tspan><tspan x="198.88" y="64.8" style="letter-spacing:-0.030002170138888888em">y</tspan><tspan x="207.72" y="64.8">-Riddle </tspan><tspan x="274.71" y="64.8" style="letter-spacing:-0.009982638888888888em">A</tspan><tspan x="286.09" y="64.8" style="letter-spacing:0.00005425347222222222em">e</tspan><tspan x="295.61" y="64.8" style="letter-spacing:-0.02001953125em">r</tspan><tspan x="303.6" y="64.8">on</tspan><tspan x="324.18" y="64.8" style="letter-spacing:-0.009982638888888888em">a</tspan><tspan x="333.79" y="64.8" style="letter-spacing:-0.00005425347222222222em">utical </tspan><tspan x="0" y="86.4">Uni</tspan><tspan x="28.21" y="86.4" style="letter-spacing:-0.014973958333333334em">v</tspan><tspan x="37.33" y="86.4" style="letter-spacing:0.00005425347222222222em">e</tspan><tspan x="46.85" y="86.4" style="letter-spacing:-0.02001953125em">r</tspan><tspan x="54.84" y="86.4">sit</tspan><tspan x="78.91" y="86.4" style="letter-spacing:-0.08002387152777778em">y</tspan><tspan x="86.85" y="86.4">, </tspan><tspan x="97.29" y="86.4" style="letter-spacing:-0.009982638888888888em">P</tspan><tspan x="108.16" y="86.4" style="letter-spacing:-0.02001953125em">r</tspan><tspan x="116.15" y="86.4" style="letter-spacing:0.00005425347222222222em">esc</tspan><tspan x="143.64" y="86.4" style="letter-spacing:-0.010036892361111112em">o</tspan><tspan x="153.61" y="86.4" style="letter-spacing:-0.02001953125em">t</tspan><tspan x="162.41" y="86.4">t </tspan><tspan x="176.56" y="86.4" style="letter-spacing:-0.039984809027777776em">f</tspan><tspan x="185" y="86.4" style="letter-spacing:-0.00005425347222222222em">or Unmann</tspan><tspan x="275.7" y="86.4" style="letter-spacing:0.010036892361111112em">e</tspan><tspan x="285.4" y="86.4">d Ai</tspan><tspan x="318.38" y="86.4" style="letter-spacing:-0.019965277777777776em">r</tspan><tspan x="326.37" y="86.4">c</tspan><tspan x="335.26" y="86.4" style="letter-spacing:-0.030002170138888888em">r</tspan><tspan x="343.08" y="86.4" style="letter-spacing:-0.009982638888888888em">a</tspan><tspan x="352.69" y="86.4" style="letter-spacing:-0.02001953125em">f</tspan><tspan x="361.49" y="86.4">t </tspan><tspan x="0" y="108" style="letter-spacing:-0.030002170138888888em">S</tspan><tspan x="9.61" y="108" style="letter-spacing:-0.025010850694444444em">y</tspan><tspan x="18.54" y="108" style="letter-spacing:-0.02001953125em">s</tspan><tspan x="27.25" y="108" style="letter-spacing:-0.009982638888888888em">t</tspan><tspan x="36.23" y="108">ems and S</tspan><tspan x="119.97" y="108" style="letter-spacing:-0.010036892361111112em">o</tspan><tspan x="129.94" y="108" style="letter-spacing:-0.019965277777777776em">f</tspan><tspan x="138.74" y="108" style="letter-spacing:-0.00005425347222222222em">t</tspan><tspan x="147.9" y="108" style="letter-spacing:-0.009982638888888888em">w</tspan><tspan x="161.57" y="108">a</tspan><tspan x="171.36" y="108" style="letter-spacing:-0.019965277777777776em">r</tspan><tspan x="179.35" y="108">e Engin</tspan><tspan x="241.56" y="108" style="letter-spacing:0.009982638888888888em">e</tspan><tspan x="251.26" y="108" style="letter-spacing:0.00005425347222222222em">ering. </tspan></text></g></svg>