<svg xmlns="http://www.w3.org/2000/svg" viewBox="0 0 437.45 201.74"><title>about</title><g id="e8283b24-cdba-4cd9-be0c-20beeef07924" data-name="Layer 1"><g id="9417120b-570a-41b5-bfb4-9354c21cf03e" data-name="Layer 7"><polygon id="346f9ba6-00d0-4798-a9fd-524c78f84b5a" data-name="&lt;Path&gt;" points="1899 1415.68 -350.67 1415.68 879.82 -180.18 1911 -180.18 1899 1415.68" style="fill:#ffe108"/><g id="a1709a82-2a54-4523-961d-06ee332fecd1" data-name="&lt;Group&gt;"><line x1="897.03" y1="-165.92" x2="-319.47" y2="1407.77" style="fill:none;stroke:#05f;stroke-miterlimit:10;stroke-width:7px;stroke-dasharray:12.018494606018066,12.018494606018066"/></g></g></g><g id="125d7801-c527-4b87-8c86-a0553a21c01e" data-name="Layer 9"><rect x="8.11" y="5.33" width="144.6" height="40.56" style="fill:#3c3c44"/><polygon points="368.71 82.43 375.71 82.43 375.71 60.4 27.04 60.4 27.04 82.43 27.04 82.43 27.04 104.45 368.71 104.45 368.71 82.43" style="fill:#3c3c44"/><rect x="27.04" y="104.45" width="334.42" height="22.03" style="fill:#3c3c44"/><polygon points="27.04 126.48 27.04 148.49 27.04 148.51 27.04 170.51 394.21 170.51 394.21 148.51 415.21 148.51 415.21 126.48 27.04 126.48" style="fill:#3c3c44"/><rect x="27.04" y="170.54" width="234.67" height="22.03" style="fill:#3c3c44"/><text transform="translate(15.13 34.97)" style="font-size:31.15131950378418px;fill:#fff;font-family:Somatic-Rounded, Somatic">about me</text><text transform="translate(30.16 78.44)" style="font-size:18px;fill:#fff;font-family:rounded-mplus-1c-medium, Rounded M+ 1c">Joshua <tspan x="64.55" y="0" style="letter-spacing:-0.019965277777777776em">P</tspan><tspan x="75.24" y="0" style="letter-spacing:-0.009982638888888888em">a</tspan><tspan x="84.85" y="0" style="letter-spacing:-0.00005425347222222222em">ul </tspan><tspan x="106" y="0" style="letter-spacing:-0.02001953125em">R</tspan><tspan x="116.73" y="0" style="letter-spacing:0.009982638888888888em">o</tspan><tspan x="127.06" y="0">drigu</tspan><tspan x="172.51" y="0" style="letter-spacing:-0.009982638888888888em">e</tspan><tspan x="181.85" y="0">z is </tspan><tspan x="216.52" y="0" style="letter-spacing:-0.030056423611111112em">f</tspan><tspan x="225.14" y="0" style="letter-spacing:-0.019965277777777776em">r</tspan><tspan x="233.13" y="0">om Northern </tspan><tspan x="0" y="21.6">Vi</tspan><tspan x="17.39" y="21.6" style="letter-spacing:-0.019965277777777776em">r</tspan><tspan x="25.38" y="21.6">ginia, a self </tspan><tspan x="131.38" y="21.6" style="letter-spacing:-0.010036892361111112em">ta</tspan><tspan x="149.97" y="21.6">ug</tspan><tspan x="170.64" y="21.6" style="letter-spacing:-0.019965277777777776em">h</tspan><tspan x="180.79" y="21.6">t g</tspan><tspan x="205.27" y="21.6" style="letter-spacing:-0.029947916666666668em">r</tspan><tspan x="213.08" y="21.6" style="letter-spacing:-0.00005425347222222222em">aphic designer </tspan><tspan x="0" y="43.2">and </tspan><tspan x="35.8" y="43.2" style="letter-spacing:-0.025010850694444444em">p</tspan><tspan x="45.86" y="43.2">ython p</tspan><tspan x="110.99" y="43.2" style="letter-spacing:-0.02001953125em">r</tspan><tspan x="118.98" y="43.2" style="letter-spacing:0.009982638888888888em">o</tspan><tspan x="129.31" y="43.2">g</tspan><tspan x="139.64" y="43.2" style="letter-spacing:-0.030002170138888888em">r</tspan><tspan x="147.45" y="43.2">amme</tspan><tspan x="195.17" y="43.2" style="letter-spacing:-0.10997178819444445em">r</tspan><tspan x="201.54" y="43.2" style="letter-spacing:-0.00005425347222222222em">, and cur</tspan><tspan x="275.36" y="43.2" style="letter-spacing:-0.019965277777777776em">r</tspan><tspan x="283.35" y="43.2">e</tspan><tspan x="292.87" y="43.2" style="letter-spacing:-0.019965277777777776em">n</tspan><tspan x="302.94" y="43.2" style="letter-spacing:-0.00005425347222222222em">tly </tspan><tspan x="0" y="64.8" style="letter-spacing:0.010036892361111112em">p</tspan><tspan x="10.69" y="64.8">e</tspan><tspan x="20.21" y="64.8" style="letter-spacing:-0.019965277777777776em">r</tspan><tspan x="28.21" y="64.8" style="letter-spacing:-0.00005425347222222222em">suing a B</tspan><tspan x="104.92" y="64.8" style="letter-spacing:-0.010036892361111112em">.S</tspan><tspan x="120.36" y="64.8">. </tspan><tspan x="131" y="64.8" style="letter-spacing:-0.030002170138888888em">a</tspan><tspan x="140.25" y="64.8">t Embr</tspan><tspan x="198.25" y="64.8" style="letter-spacing:-0.030002170138888888em">y</tspan><tspan x="207.09" y="64.8">-Riddle </tspan><tspan x="274.08" y="64.8" style="letter-spacing:-0.009982638888888888em">A</tspan><tspan x="285.46" y="64.8">e</tspan><tspan x="294.98" y="64.8" style="letter-spacing:-0.019965277777777776em">r</tspan><tspan x="302.97" y="64.8">on</tspan><tspan x="323.55" y="64.8" style="letter-spacing:-0.010036892361111112em">a</tspan><tspan x="333.16" y="64.8">utical </tspan><tspan x="0" y="86.4">Uni</tspan><tspan x="28.21" y="86.4" style="letter-spacing:-0.014973958333333334em">v</tspan><tspan x="37.33" y="86.4" style="letter-spacing:0.00005425347222222222em">e</tspan><tspan x="46.85" y="86.4" style="letter-spacing:-0.02001953125em">r</tspan><tspan x="54.84" y="86.4">sity </tspan><tspan x="93.27" y="86.4" style="letter-spacing:-0.039984809027777776em">f</tspan><tspan x="101.72" y="86.4" style="letter-spacing:-0.00005425347222222222em">or Unmann</tspan><tspan x="192.42" y="86.4" style="letter-spacing:0.010036892361111112em">e</tspan><tspan x="202.12" y="86.4">d Ai</tspan><tspan x="235.09" y="86.4" style="letter-spacing:-0.02001953125em">r</tspan><tspan x="243.09" y="86.4">c</tspan><tspan x="251.98" y="86.4" style="letter-spacing:-0.029947916666666668em">r</tspan><tspan x="259.79" y="86.4" style="letter-spacing:-0.010036892361111112em">a</tspan><tspan x="269.4" y="86.4" style="letter-spacing:-0.019965277777777776em">f</tspan><tspan x="278.2" y="86.4" style="letter-spacing:-0.00005425347222222222em">t </tspan><tspan x="292.35" y="86.4" style="letter-spacing:-0.030056423611111112em">S</tspan><tspan x="301.96" y="86.4" style="letter-spacing:-0.024956597222222224em">y</tspan><tspan x="310.89" y="86.4" style="letter-spacing:-0.02001953125em">s</tspan><tspan x="319.6" y="86.4" style="letter-spacing:-0.010036892361111112em">t</tspan><tspan x="328.58" y="86.4" style="letter-spacing:0.00005425347222222222em">ems </tspan><tspan x="0" y="108">and S</tspan><tspan x="45.95" y="108" style="letter-spacing:-0.009982638888888888em">o</tspan><tspan x="55.93" y="108" style="letter-spacing:-0.02001953125em">f</tspan><tspan x="64.73" y="108" style="letter-spacing:-0.00005425347222222222em">t</tspan><tspan x="73.89" y="108" style="letter-spacing:-0.009982638888888888em">w</tspan><tspan x="87.55" y="108">a</tspan><tspan x="97.34" y="108" style="letter-spacing:-0.019965277777777776em">r</tspan><tspan x="105.33" y="108">e Engin</tspan><tspan x="167.54" y="108" style="letter-spacing:0.010036892361111112em">e</tspan><tspan x="177.24" y="108">ering. </tspan></text></g></svg>