<svg xmlns="http://www.w3.org/2000/svg" viewBox="0 0 4585.49 564.27"><title>graph</title><g id="b4ada5ab-b494-4dd3-abbf-4a03ef825f13" data-name="Layer 11"><polygon points="186.05 -145.16 -38.42 776.49 4760.77 790.99 4726.77 -191.03 186.05 -145.16" style="fill:#3c3c44"/><line x1="220.82" y1="-28.62" x2="77.87" y2="688.38" style="fill:none;stroke:#545454;stroke-miterlimit:10;stroke-width:4px"/><line x1="4596.49" y1="-345.97" x2="4548.83" y2="889.26" style="fill:none;stroke:#545454;stroke-miterlimit:10"/><line x1="4544.11" y1="-338.32" x2="4494.29" y2="896.82" style="fill:none;stroke:#545454;stroke-miterlimit:10"/><line x1="4491.71" y1="-330.76" x2="4439.74" y2="904.29" style="fill:none;stroke:#545454;stroke-miterlimit:10"/><line x1="4439.3" y1="-323.29" x2="4385.18" y2="911.67" style="fill:none;stroke:#545454;stroke-miterlimit:10"/><line x1="4386.88" y1="-315.92" x2="4330.6" y2="918.95" style="fill:none;stroke:#545454;stroke-miterlimit:10"/><line x1="4334.45" y1="-308.63" x2="4276.01" y2="926.14" style="fill:none;stroke:#545454;stroke-miterlimit:10"/><line x1="4282" y1="-301.44" x2="4221.41" y2="933.23" style="fill:none;stroke:#545454;stroke-miterlimit:10"/><line x1="4229.54" y1="-294.34" x2="4166.79" y2="940.22" style="fill:none;stroke:#545454;stroke-miterlimit:10"/><line x1="4177.06" y1="-287.32" x2="4112.16" y2="947.12" style="fill:none;stroke:#545454;stroke-miterlimit:10"/><line x1="4124.58" y1="-280.41" x2="4057.52" y2="953.92" style="fill:none;stroke:#545454;stroke-miterlimit:10"/><line x1="4072.08" y1="-273.58" x2="4002.87" y2="960.63" style="fill:none;stroke:#545454;stroke-miterlimit:10"/><line x1="4019.57" y1="-266.84" x2="3948.21" y2="967.24" style="fill:none;stroke:#545454;stroke-miterlimit:10"/><line x1="3967.05" y1="-260.2" x2="3893.53" y2="973.76" style="fill:none;stroke:#545454;stroke-miterlimit:10"/><line x1="3914.52" y1="-253.65" x2="3838.85" y2="980.18" style="fill:none;stroke:#545454;stroke-miterlimit:10"/><line x1="3861.98" y1="-247.19" x2="3784.15" y2="986.51" style="fill:none;stroke:#545454;stroke-miterlimit:10"/><line x1="3809.42" y1="-240.82" x2="3729.44" y2="992.74" style="fill:none;stroke:#545454;stroke-miterlimit:10"/><line x1="3756.86" y1="-234.54" x2="3674.73" y2="998.88" style="fill:none;stroke:#545454;stroke-miterlimit:10"/><line x1="3704.28" y1="-228.35" x2="3620" y2="1004.92" style="fill:none;stroke:#545454;stroke-miterlimit:10"/><line x1="3651.69" y1="-222.26" x2="3565.26" y2="1010.86" style="fill:none;stroke:#545454;stroke-miterlimit:10"/><line x1="3599.09" y1="-216.26" x2="3510.51" y2="1016.71" style="fill:none;stroke:#545454;stroke-miterlimit:10"/><line x1="3546.49" y1="-210.35" x2="3455.75" y2="1022.47" style="fill:none;stroke:#545454;stroke-miterlimit:10"/><line x1="3493.87" y1="-204.53" x2="3400.98" y2="1028.13" style="fill:none;stroke:#545454;stroke-miterlimit:10"/><line x1="3441.24" y1="-198.8" x2="3346.2" y2="1033.69" style="fill:none;stroke:#545454;stroke-miterlimit:10"/><line x1="3388.6" y1="-193.17" x2="3291.41" y2="1039.15" style="fill:none;stroke:#545454;stroke-miterlimit:10"/><line x1="3335.95" y1="-187.62" x2="3236.61" y2="1044.53" style="fill:none;stroke:#545454;stroke-miterlimit:10"/><line x1="3283.29" y1="-182.17" x2="3181.8" y2="1049.8" style="fill:none;stroke:#545454;stroke-miterlimit:10"/><line x1="3230.63" y1="-176.81" x2="3126.98" y2="1054.98" style="fill:none;stroke:#545454;stroke-miterlimit:10"/><line x1="3177.95" y1="-171.55" x2="3072.16" y2="1060.07" style="fill:none;stroke:#545454;stroke-miterlimit:10"/><line x1="3125.27" y1="-166.37" x2="3017.32" y2="1065.05" style="fill:none;stroke:#545454;stroke-miterlimit:10"/><line x1="3072.57" y1="-161.29" x2="2962.48" y2="1069.95" style="fill:none;stroke:#545454;stroke-miterlimit:10"/><line x1="3019.87" y1="-156.3" x2="2907.63" y2="1074.74" style="fill:none;stroke:#545454;stroke-miterlimit:10"/><line x1="2967.16" y1="-151.4" x2="2852.77" y2="1079.45" style="fill:none;stroke:#545454;stroke-miterlimit:10"/><line x1="2914.43" y1="-146.59" x2="2797.9" y2="1084.05" style="fill:none;stroke:#545454;stroke-miterlimit:10"/><line x1="2861.71" y1="-141.88" x2="2743.02" y2="1088.56" style="fill:none;stroke:#545454;stroke-miterlimit:10"/><line x1="2808.97" y1="-137.25" x2="2688.14" y2="1092.98" style="fill:none;stroke:#545454;stroke-miterlimit:10"/><line x1="2756.22" y1="-132.72" x2="2633.24" y2="1097.29" style="fill:none;stroke:#545454;stroke-miterlimit:10"/><line x1="2703.47" y1="-128.28" x2="2578.34" y2="1101.52" style="fill:none;stroke:#545454;stroke-miterlimit:10"/><line x1="2650.71" y1="-123.94" x2="2523.44" y2="1105.64" style="fill:none;stroke:#545454;stroke-miterlimit:10"/><line x1="2597.94" y1="-119.68" x2="2468.52" y2="1109.67" style="fill:none;stroke:#545454;stroke-miterlimit:10"/><line x1="2545.17" y1="-115.52" x2="2413.6" y2="1113.61" style="fill:none;stroke:#545454;stroke-miterlimit:10"/><line x1="2492.39" y1="-111.45" x2="2358.68" y2="1117.45" style="fill:none;stroke:#545454;stroke-miterlimit:10"/><line x1="2439.6" y1="-107.47" x2="2303.74" y2="1121.19" style="fill:none;stroke:#545454;stroke-miterlimit:10"/><line x1="2386.8" y1="-103.58" x2="2248.8" y2="1124.84" style="fill:none;stroke:#545454;stroke-miterlimit:10"/><line x1="2334" y1="-99.79" x2="2193.85" y2="1128.39" style="fill:none;stroke:#545454;stroke-miterlimit:10"/><line x1="2281.19" y1="-96.09" x2="2138.9" y2="1131.85" style="fill:none;stroke:#545454;stroke-miterlimit:10"/><line x1="2228.37" y1="-92.48" x2="2083.94" y2="1135.21" style="fill:none;stroke:#545454;stroke-miterlimit:10"/><line x1="2175.55" y1="-88.96" x2="2028.98" y2="1138.47" style="fill:none;stroke:#545454;stroke-miterlimit:10"/><line x1="2122.72" y1="-85.53" x2="1974.01" y2="1141.64" style="fill:none;stroke:#545454;stroke-miterlimit:10"/><line x1="2069.89" y1="-82.2" x2="1919.03" y2="1144.71" style="fill:none;stroke:#545454;stroke-miterlimit:10"/><line x1="2017.05" y1="-78.96" x2="1864.05" y2="1147.68" style="fill:none;stroke:#545454;stroke-miterlimit:10"/><line x1="1964.2" y1="-75.81" x2="1809.07" y2="1150.56" style="fill:none;stroke:#545454;stroke-miterlimit:10"/><line x1="1911.35" y1="-72.75" x2="1754.07" y2="1153.35" style="fill:none;stroke:#545454;stroke-miterlimit:10"/><line x1="1858.49" y1="-69.79" x2="1699.08" y2="1156.04" style="fill:none;stroke:#545454;stroke-miterlimit:10"/><line x1="1805.63" y1="-66.92" x2="1644.08" y2="1158.63" style="fill:none;stroke:#545454;stroke-miterlimit:10"/><line x1="1752.77" y1="-64.14" x2="1589.07" y2="1161.12" style="fill:none;stroke:#545454;stroke-miterlimit:10"/><line x1="1699.9" y1="-61.45" x2="1534.06" y2="1163.52" style="fill:none;stroke:#545454;stroke-miterlimit:10"/><line x1="1647.02" y1="-58.86" x2="1479.05" y2="1165.83" style="fill:none;stroke:#545454;stroke-miterlimit:10"/><line x1="1594.14" y1="-56.35" x2="1424.03" y2="1168.04" style="fill:none;stroke:#545454;stroke-miterlimit:10"/><line x1="1541.26" y1="-53.94" x2="1369.01" y2="1170.15" style="fill:none;stroke:#545454;stroke-miterlimit:10"/><line x1="1488.37" y1="-51.62" x2="1313.99" y2="1172.16" style="fill:none;stroke:#545454;stroke-miterlimit:10"/><line x1="1435.47" y1="-49.4" x2="1258.96" y2="1174.08" style="fill:none;stroke:#545454;stroke-miterlimit:10"/><line x1="1382.58" y1="-47.26" x2="1203.93" y2="1175.91" style="fill:none;stroke:#545454;stroke-miterlimit:10"/><line x1="1329.68" y1="-45.22" x2="1148.89" y2="1177.64" style="fill:none;stroke:#545454;stroke-miterlimit:10"/><line x1="1276.78" y1="-43.27" x2="1093.86" y2="1179.27" style="fill:none;stroke:#545454;stroke-miterlimit:10"/><line x1="1223.87" y1="-41.42" x2="1038.82" y2="1180.8" style="fill:none;stroke:#545454;stroke-miterlimit:10"/><line x1="1170.96" y1="-39.65" x2="983.77" y2="1182.24" style="fill:none;stroke:#545454;stroke-miterlimit:10"/><line x1="1118.05" y1="-37.98" x2="928.73" y2="1183.59" style="fill:none;stroke:#545454;stroke-miterlimit:10"/><line x1="1065.13" y1="-36.4" x2="873.68" y2="1184.83" style="fill:none;stroke:#545454;stroke-miterlimit:10"/><line x1="1012.21" y1="-34.91" x2="818.63" y2="1185.98" style="fill:none;stroke:#545454;stroke-miterlimit:10"/><line x1="959.29" y1="-33.52" x2="763.58" y2="1187.04" style="fill:none;stroke:#545454;stroke-miterlimit:10"/><line x1="906.37" y1="-32.22" x2="708.53" y2="1188" style="fill:none;stroke:#545454;stroke-miterlimit:10"/><line x1="853.44" y1="-31.01" x2="653.47" y2="1188.86" style="fill:none;stroke:#545454;stroke-miterlimit:10"/><line x1="800.52" y1="-29.89" x2="598.42" y2="1189.63" style="fill:none;stroke:#545454;stroke-miterlimit:10"/><line x1="747.59" y1="-28.86" x2="543.36" y2="1190.3" style="fill:none;stroke:#545454;stroke-miterlimit:10"/><line x1="694.66" y1="-27.93" x2="488.3" y2="1190.87" style="fill:none;stroke:#545454;stroke-miterlimit:10"/><line x1="641.72" y1="-27.09" x2="433.24" y2="1191.35" style="fill:none;stroke:#545454;stroke-miterlimit:10"/><line x1="588.79" y1="-26.34" x2="378.18" y2="1191.74" style="fill:none;stroke:#545454;stroke-miterlimit:10"/><line x1="535.85" y1="-25.68" x2="323.12" y2="1192.02" style="fill:none;stroke:#545454;stroke-miterlimit:10"/><line x1="482.92" y1="-25.12" x2="268.06" y2="1192.21" style="fill:none;stroke:#545454;stroke-miterlimit:10"/><line x1="429.98" y1="-24.65" x2="213" y2="1192.31" style="fill:none;stroke:#545454;stroke-miterlimit:10"/><line x1="377.04" y1="-24.27" x2="157.94" y2="1192.31" style="fill:none;stroke:#545454;stroke-miterlimit:10"/><line x1="324.1" y1="-23.98" x2="102.87" y2="1192.21" style="fill:none;stroke:#545454;stroke-miterlimit:10"/><line x1="271.17" y1="-23.79" x2="47.81" y2="1192.01" style="fill:none;stroke:#545454;stroke-miterlimit:10"/><line x1="106.13" y1="551.04" x2="4643.23" y2="551.04" style="fill:none;stroke:#545454;stroke-miterlimit:10"/><line x1="114.63" y1="508.04" x2="4651.73" y2="508.04" style="fill:none;stroke:#545454;stroke-miterlimit:10"/><line x1="123.13" y1="465.04" x2="4660.23" y2="465.04" style="fill:none;stroke:#545454;stroke-miterlimit:10"/><line x1="131.63" y1="422.04" x2="4668.73" y2="422.04" style="fill:none;stroke:#545454;stroke-miterlimit:10"/><line x1="140.13" y1="379.04" x2="4677.23" y2="379.04" style="fill:none;stroke:#545454;stroke-miterlimit:10"/><line x1="148.63" y1="336.04" x2="4685.73" y2="336.04" style="fill:none;stroke:#545454;stroke-miterlimit:10"/><line x1="157.13" y1="293.04" x2="4694.23" y2="293.04" style="fill:none;stroke:#545454;stroke-miterlimit:10"/><line x1="165.63" y1="250.04" x2="4702.73" y2="250.04" style="fill:none;stroke:#545454;stroke-miterlimit:10"/><line x1="174.13" y1="207.04" x2="4711.23" y2="207.04" style="fill:none;stroke:#545454;stroke-miterlimit:10"/><line x1="182.63" y1="164.04" x2="4719.73" y2="164.04" style="fill:none;stroke:#545454;stroke-miterlimit:10"/><line x1="191.13" y1="121.04" x2="4728.23" y2="121.04" style="fill:none;stroke:#545454;stroke-miterlimit:10"/><line x1="199.63" y1="78.04" x2="4736.73" y2="78.04" style="fill:none;stroke:#545454;stroke-miterlimit:10"/><line x1="208.13" y1="35.04" x2="4745.23" y2="35.04" style="fill:none;stroke:#545454;stroke-miterlimit:10"/></g></svg>