<svg xmlns="http://www.w3.org/2000/svg" viewBox="0 0 413.01 30"><title>Asset 16</title><g id="ae022481-e8b2-4923-bc48-7b1396524cb4" data-name="Layer 2"><g id="6d35e0ca-02ff-435d-8d4c-5855cea62928" data-name="Layer 1"><g id="ce5a5dad-1ede-49c1-a8ea-c5383afe449e" data-name="Layer 6"><g id="68d930ac-e85a-41dc-a42d-d22d7116f03c" data-name="&lt;Group&gt;"><path d="M6,10.5a4.5,4.5,0,0,1,0-9H407a4.5,4.5,0,0,1,0,9Z" style="fill:#fff"/><path d="M407,3a3,3,0,0,1,0,6H6A3,3,0,0,1,6,3H407m0-3H6A6,6,0,0,0,6,12H407a6,6,0,0,0,0-12Z" style="fill:#05f"/></g><g id="e87c3057-d43d-4841-817e-d16365281821" data-name="&lt;Group&gt;"><path d="M60.19,28.5a4.5,4.5,0,0,1,0-9H407a4.5,4.5,0,0,1,0,9Z" style="fill:#fff"/><path d="M407,21a3,3,0,0,1,0,6H60.19a3,3,0,0,1,0-6H407m0-3H60.19a6,6,0,0,0,0,12H407a6,6,0,0,0,0-12Z" style="fill:#05f"/></g></g></g></g></svg>