<svg xmlns:xlink="http://www.w3.org/1999/xlink" id="a354e3b2-9297-45f4-afb4-26d3ee193fbd" data-name="Layer 1" xmlns="http://www.w3.org/2000/svg" viewBox="0 0 274.53 373.43"><defs><clipPath id="1e5db0f1-27a2-4859-98e9-fe3a21322cde"><path id="463e1d9b-fd75-418f-9fae-55545bbe13e6" data-name="&lt;Clipping Path&gt;" d="M71.35,146.5c-2,0-16.92,8-16.92,8L42.6,171.67l-2.75,30.52.9,54.44-.9,13.62,2.5,5.75,3.25,6.25L50.1,293l4.46,3.67,2.54,5.08,4.25.5,7.24,10.68L67.65,316l3.39.54,14.34,21.14L82.26,350.3l11.23,3.8,21.31-34.45-7.09-11.39-5.48-.67L93,283.33l-6.82-15.66,2-5.34-6-7.33-3.27-36.08,1.17-7.67.71-45.48Z" fill="#456d45"/></clipPath><clipPath id="d201000e-76fc-4974-8469-f0b72aa81fb7"><polygon id="ccf85750-6c7b-453b-b30a-dbb61721bf37" data-name="&lt;Clipping Path&gt;" points="180.85 140.92 207.1 146.5 220.35 159.67 232.6 195 229.85 243.5 232.6 252.75 230.85 260 231.72 265.25 230.22 269.73 231.26 273.56 227.18 275.94 220.61 283.38 219.1 287.5 215.37 288.78 210.75 293.53 210.47 298 202.82 301.71 195.1 309.67 178.27 339.67 167.31 343.86 156.64 348.85 146.45 323.74 149.89 315.24 155.95 313.76 174.97 293.78 183.71 271.17 186.6 264.25 189.6 254.5 189.6 231.75 183.85 216.5 184.85 211.67 188.56 184 157.08 175.5 180.85 140.92" fill="#456d45"/></clipPath><clipPath id="f7d6caf6-3bbf-4400-9358-ff5370680e1a"><polygon id="00dd58af-9202-409a-828f-b1796080aab1" data-name="&lt;Clipping Path&gt;" points="54.43 154.5 64.27 205 79.1 254.25 86.08 283.51 79.4 308.26 84.27 315.29 83.6 328.5 86.27 336.67 85.1 345 89.84 352.17 183.77 352.33 179.6 342.88 186.6 333.67 183.1 319 186.97 279.73 191.6 250.3 204.93 146.04 194.1 145.17 54.43 154.5" fill="#456d45"/></clipPath><clipPath id="38ee07eb-c319-4901-9bbb-f110fbb866a1"><path id="9fa1ec95-9b3d-46ee-89e4-d6f915d2533e" data-name="&lt;Clipping Path&gt;" d="M69.6,325.31l6.32-6.22a36.4,36.4,0,0,0,10.81-27.78L86.15,280c17.14,1.48,82.84,1.61,100.82-.29L185.5,294a27.71,27.71,0,0,0,8.58,23h0l3.52,19.32V350.5l-6.27,11.57-31.4,1-20.06-6-17.53.23s-21.13,10.91-24.41,11c-10,.29-8.31-7.91-16.58-7.33L74,348.84Z" fill="#456d45"/></clipPath></defs><title>portrait-01</title><polygon points="62.6 383 66.6 337 35.6 306 26.6 192 54.6 132 81.6 124 62.6 57 105.6 9 203.6 26 189.6 89 206.6 136 243.6 183 239.6 295 210.6 324 210.6 383 88.6 396 62.6 383" fill="#fff"/><path d="M84.6,351l-4,35L66.85,417,47.1,488,35.93,513l-1.33,9.33L9.6,661l-20,20.5-2.18,29.88,30.18,4,30-33.83-3.5-29.67,14.17-19.16L84.6,546.33,86.1,537l3-4.5,41-82.75c1.84-2.35,10.57,1,18.1,2.25l7.06,37s10.83,17.5,10.83,19c0,.83,9.57,35,9.57,35L196,597.47l11.65,19.86,17.21,39-4.26,10.14-2.75,21.89L241.6,712h36V688.5l-11.33-9.83-1-15.54L237.6,547l-20-47.67L212.19,476l-6.09-60.89L194.6,391l-5.5-37.47Z" fill="#3d3d3d"/><polygon points="191.6 214.75 191.6 277.33 179.43 291.83 83.93 295.33 53.6 220 186.12 202.19 189.6 204 191.6 214.75" fill="#365136"/><path id="710c448c-a983-46f4-8896-64bfd9a39eb2" data-name="&lt;Clipping Path&gt;" d="M71.35,146.5c-2,0-16.92,8-16.92,8L42.6,171.67l-2.75,30.52.9,54.44-.9,13.62,2.5,5.75,3.25,6.25L50.1,293l4.46,3.67,2.54,5.08,4.25.5,7.24,10.68L67.65,316l3.39.54,14.34,21.14L82.26,350.3l11.23,3.8,21.31-34.45-7.09-11.39-5.48-.67L93,283.33l-6.82-15.66,2-5.34-6-7.33-3.27-36.08,1.17-7.67.71-45.48Z" fill="#456d45"/><g clip-path="url(#1e5db0f1-27a2-4859-98e9-fe3a21322cde)"><path d="M65.27,321.5c-.21.63,8-6.93,14.08-11,3.6-2.4,9.08-3,9.08-3L67.65,330.67Z" fill="#426342"/><path d="M95.85,283.67c.42.5-6.42,13.83-6.42,13.83l-11.66,11,12-5,9.83-13.83Z" fill="#426342"/><polygon points="59.6 305.52 84.93 291.5 84.6 297.67 75.43 305.52 65.6 316.17 59.6 305.52" fill="#426342"/></g><polygon points="81.85 224.5 66.85 254.25 82.2 255 95.85 239.75 81.85 224.5" fill="#426342"/><polygon points="86.15 267.67 72.6 281.25 92.97 272.75 86.15 267.67" fill="#426342"/><polygon points="61.35 302.25 73.95 299.5 67.65 311.54 61.35 302.25" fill="#426342"/><polygon points="39.85 270.25 43.35 261.75 56.6 257 77.1 259.5 79.35 261.75 58.35 261 47.35 267.67 39.85 270.25" fill="#426342"/><polygon id="0f1438ad-41a8-4936-b0c6-7c728e8fb92b" data-name="&lt;Clipping Path&gt;" points="180.85 140.92 207.1 146.5 220.35 159.67 232.6 195 229.85 243.5 232.6 252.75 230.85 260 231.72 265.25 230.22 269.73 231.26 273.56 227.18 275.94 220.61 283.38 219.1 287.5 215.37 288.78 210.75 293.53 210.47 298 202.82 301.71 195.1 309.67 178.27 339.67 167.31 343.86 156.64 348.85 146.45 323.74 149.89 315.24 155.95 313.76 174.97 293.78 183.71 271.17 186.6 264.25 189.6 254.5 189.6 231.75 183.85 216.5 184.85 211.67 188.56 184 157.08 175.5 180.85 140.92" fill="#456d45"/><g clip-path="url(#d201000e-76fc-4974-8469-f0b72aa81fb7)"><polyline points="204.93 146.04 220.35 148.75 218.1 163.67 225.1 165 227.6 175.5 210.6 224.5 209.72 236.75 207.61 240.69 204.6 249.25 204.6 257 205.56 264.88 199.03 266.16 201.72 279.73 194.97 270.63 193.34 278.75 191.61 280.65 193.43 285.5 191.6 290.5 199.1 311.38 194.93 316.75 181.47 320.63 173.35 311.5 186 275.34 172.85 197 204.93 146.04" fill="#426342"/></g><path d="M71.35,146.5l18.58-.5,26.67-9.68,1,36s32-3.66,32-4.66,7-31,9.33-31.34S195.1,146.5,195.1,146.5L175.93,175,79.27,187.33,62.93,164Z" fill="#456d45"/><polygon id="2355837b-80d5-46db-b908-8261bc6ae690" data-name="&lt;Clipping Path&gt;" points="54.43 154.5 64.27 205 79.1 254.25 86.08 283.51 79.4 308.26 84.27 315.29 83.6 328.5 86.27 336.67 85.1 345 89.84 352.17 183.77 352.33 179.6 342.88 186.6 333.67 183.1 319 186.97 279.73 191.6 250.3 204.93 146.04 194.1 145.17 54.43 154.5" fill="#456d45"/><g clip-path="url(#f7d6caf6-3bbf-4400-9358-ff5370680e1a)"><polygon points="197.6 146.5 186.6 204 181.84 259.66 185.71 279.85 171.02 261.36 182.27 197 197.6 146.5" fill="#426342"/></g><path d="M67.65,170.74l18.12,29.93,4.33,60-1.9,25L86,293.33s15-41,14.31-43S97.77,203,95.85,200s-37.62-47.5-37.62-47.5Z" fill="#426342"/><polygon points="166.1 120 155.6 128 111.5 124 100.6 125.5 93.06 126.67 100.1 140.92 127.35 155.75 165.34 145.17 172.85 131.25 166.1 120" fill="#3b5e3b"/><path d="M162,111.63,166.1,59l-59.75,4.5L93.06,75.37l14.27,43.78,7.1,3.68L117.6,137l-8.25,30.75,47-2,3.62-25.9s-.67-6.14-1.24-11.73h0Z" fill="#b2aa7b"/><g id="af33bd34-b9a5-49ad-b4e6-6ae9db914584" data-name="text"><path d="M94.6,194.5h21s7.58-1.75,13.42-1,8-.5,8-.5a28.47,28.47,0,0,0,9.39.08c4.9-.83,4.9-1,4.9-1a5.54,5.54,0,0,0,2-.07c.75-.25,10.32,1.22,14.53,0a32.34,32.34,0,0,1,7.79-1.68c1.81-.11,9.18-1.85,9.18-1.85l4.24,3" fill="none" stroke="#e2f2e2" stroke-miterlimit="10" stroke-width="3"/><path d="M100.29,230.67s20.21-.29,21.26-.67,2.85,0,4,0,10.43.33,11.27,0,3.33-.33,7.16-.83,9.67-1.84,9.67-1.84,2,.5,2.67,0,1.63-.33,5.73,0,6.6-1,7.6-.31,8.33-.19,8.33-.19,3.17,1.32,4.84,1.92,5.7,0,5.7,0" fill="none" stroke="#e2f2e2" stroke-miterlimit="10" stroke-width="3"/><polyline points="104.1 208.67 103.1 199.5 108.6 199.5 109.27 202.69 104.6 203.83" fill="none" stroke="#e2f2e2" stroke-miterlimit="10" stroke-width="3"/><polygon points="116.93 198 117.52 209.25 122.45 205.83 121.63 199.5 119.25 196.62 116.93 198" fill="none" stroke="#e2f2e2" stroke-miterlimit="10" stroke-width="3"/><path d="M123.93,207.17s4-11.34,5.09-10.5,5.58,11.5,5.58,11.5" fill="none" stroke="#e2f2e2" stroke-miterlimit="10" stroke-width="3"/><line x1="125.89" y1="202.04" x2="132.96" y2="203.33" fill="none" stroke="#e2f2e2" stroke-miterlimit="10" stroke-width="3"/><polygon points="135.1 197.17 135.1 210 141.13 208.17 140.68 198.6 135.1 197.17" fill="none" stroke="#e2f2e2" stroke-miterlimit="10" stroke-width="3"/><path d="M144.38,196.62c-.11,1,.55,12.63.55,12.63l3.54-2.65,1.14-7.1-4.68-4.34Z" fill="none" stroke="#e2f2e2" stroke-miterlimit="10" stroke-width="3"/><polyline points="151.85 195.91 157.93 202.04 163.27 195.16" fill="none" stroke="#e2f2e2" stroke-miterlimit="10" stroke-width="3"/><line x1="157.93" y1="202.04" x2="157.56" y2="211.17" fill="none" stroke="#e2f2e2" stroke-miterlimit="10" stroke-width="3"/><path d="M180,210l-12.9-9.37,5.75-6.46s6.25-.88,3.42,2.45-11.84,10.21-12.17,11.55,6.33,1.83,6.33,1.83l8.84-6.67" fill="none" stroke="#e2f2e2" stroke-miterlimit="10" stroke-width="3"/><line x1="106.1" y1="215" x2="106.1" y2="227" fill="none" stroke="#e2f2e2" stroke-miterlimit="10" stroke-width="3"/><path d="M103.1,215s7.5-.33,9.17,0" fill="none" stroke="#e2f2e2" stroke-miterlimit="10" stroke-width="3"/><line x1="113.1" y1="215" x2="113.1" y2="227" fill="none" stroke="#e2f2e2" stroke-miterlimit="10" stroke-width="3"/><line x1="113.6" y1="222.5" x2="118.6" y2="222.5" fill="none" stroke="#e2f2e2" stroke-miterlimit="10" stroke-width="3"/><line x1="118.1" y1="215" x2="118.1" y2="226" fill="none" stroke="#e2f2e2" stroke-miterlimit="10" stroke-width="3"/><polyline points="131.35 225.38 122.62 226.5 122.85 215.63 131.12 216.04" fill="none" stroke="#e2f2e2" stroke-miterlimit="10" stroke-width="3"/><line x1="123.6" y1="222.5" x2="128.18" y2="221.5" fill="none" stroke="#e2f2e2" stroke-miterlimit="10" stroke-width="3"/><line x1="139.1" y1="216" x2="139.1" y2="226" fill="none" stroke="#e2f2e2" stroke-miterlimit="10" stroke-width="3"/><line x1="148.47" y1="216" x2="147.22" y2="225.13" fill="none" stroke="#e2f2e2" stroke-miterlimit="10" stroke-width="3"/><line x1="141.1" y1="221.5" x2="147.85" y2="220" fill="none" stroke="#e2f2e2" stroke-miterlimit="10" stroke-width="3"/><polyline points="151.85 215.5 154.49 220.56 158.47 214.85" fill="none" stroke="#e2f2e2" stroke-miterlimit="10" stroke-width="3"/><line x1="154.49" y1="225.13" x2="154.88" y2="220" fill="none" stroke="#e2f2e2" stroke-miterlimit="10" stroke-width="3"/><polyline points="167.47 222.92 159.1 225 159.1 215 165.35 213.25" fill="none" stroke="#e2f2e2" stroke-miterlimit="10" stroke-width="3"/><line x1="160.1" y1="219.13" x2="166.1" y2="217.71" fill="none" stroke="#e2f2e2" stroke-miterlimit="10" stroke-width="3"/><polyline points="169.35 224.5 167.97 212.13 174.97 221 173.85 212.13" fill="none" stroke="#e2f2e2" stroke-miterlimit="10" stroke-width="3"/><polyline points="178.35 223.88 180.85 215 185.1 221.5 186.6 225.13" fill="none" stroke="#e2f2e2" stroke-miterlimit="10" stroke-width="3"/><line x1="184.49" y1="220.56" x2="179.02" y2="221.5" fill="none" stroke="#e2f2e2" stroke-miterlimit="10" stroke-width="3"/></g><polygon points="85.96 87.29 91.37 32.58 133.43 20.79 176.09 48.04 133.43 25.76 102.11 34.52 91.06 84.61 85.96 87.29" fill="#ededed"/><path d="M88.2,70.62,94.53,34.9,131,23.2l30.82,13.91L176.09,61.3s-32.8-6.48-34.06-7.12-39.92,7.12-39.92,7.12Z" fill="#e2f2e2" stroke="red" stroke-miterlimit="10" stroke-width="0.95"/><path d="M111.35,34.13l-3.44,10.56c-.14,1-.34,3.07.19,3.87,1.11,1.7,4.48,2.63,4.83,2.63s5.66-3.76,11.13-7a8.91,8.91,0,0,0,4.36-7.2c0-.68.07-1.21.1-1.4A3.49,3.49,0,0,0,127,32.12a3.85,3.85,0,0,0-5.75,2.26L120.2,38c-.61,2.08,4.41,9.27,4.65,9.4,2.12,1.12,8.46,3.22,11.5,1.87s7.34-2.82,6-5.41c-2.87-5.65-7.08-13-7.08-13l3.56,2.42-.56,4.06" fill="#e2f2e2" stroke="red" stroke-miterlimit="10" stroke-width="0.95"/><path d="M88.2,70.62l32-33s35.57-7.59,42.44-4.51S186.6,46.91,186.6,46.91l-15.41,26L89.63,75.52Z" fill="#444"/><polygon points="167.88 75.52 172.85 91.25 170.39 100.71 163.14 100.46 160.1 77 167.88 75.52" fill="#444"/><path d="M88.2,70.62l32-33s35.57-7.59,42.44-4.51S186.6,46.91,186.6,46.91l-15.41,26" fill="none" stroke="red" stroke-miterlimit="10"/><path d="M94.53,76.87c0,1.89,12.82,38.13,12.82,38.13l35.15,14.17,22.18-20.5s-.24-2.15-.3-2.67c-.77-6.88,1-44.7,1-44.7-17.45-5.11-34.18-5.65-49.95,0Z" fill="#ccc696"/><path d="M160.8,60.07l5,1.31-.75,2.12,2.5,3.38v3.43s2.33,2.64,2.74,2.63c.71,0-5.54,3.17-5.54,3.17l-1.11-14.86-16.77-1.87s-10.34-.84-11.83-1.38a8.87,8.87,0,0,0-3.29-.38S121.35,62.25,119,62.88s-12.44,5-12.44,5-1.11,2.2-2.29,2.4-4.52,3.52-4.52,3.52L98.18,77l-2.13,1.67,7.12,26.82,2.35,8.1-2.75-3.09-4.59-2.33,2.11-4.29-6.69-26L92.77,76l1.83-5,.62-3.12,3,2.43L102.47,69l1.81.33,11-11.41,1.29-4.83L114.72,50h4.88V60l4.17-8.81,6.16-9.69L129,50.17l-1.8,5,7.71-4,2.79-9.63,1.38,6.75,1.62,5.68,5.73,1.32.48-11.37-2-2.25,7.54,3.62L155.93,54" fill="#e2f2e2"/><polygon points="94.58 78.69 105.6 88.5 104.27 103.75 90.93 107 81.95 91.33 94.58 78.69" fill="#444"/><polygon points="93.14 82.85 98.18 89.78 97.57 100.54 91.47 102.84 87.37 91.78 93.14 82.85" fill="#4b4c4b"/><line x1="85.77" y1="73.83" x2="83.1" y2="55.5" fill="none" stroke="#ededed" stroke-miterlimit="10" stroke-width="2"/><polygon points="81.95 74.34 89.6 70.31 89.6 80.74 82.42 80.26 81.95 74.34" fill="#444"/><path id="8f9c57c2-f459-42b8-9037-2f11fa775179" data-name="&lt;Clipping Path&gt;" d="M69.6,325.31l6.32-6.22a36.4,36.4,0,0,0,10.81-27.78L86.15,280c17.14,1.48,82.84,1.61,100.82-.29L185.5,294a27.71,27.71,0,0,0,8.58,23h0l3.52,19.32V350.5l-6.27,11.57-31.4,1-20.06-6-17.53.23s-21.13,10.91-24.41,11c-10,.29-8.31-7.91-16.58-7.33L74,348.84Z" fill="#456d45"/><g clip-path="url(#38ee07eb-c319-4901-9bbb-f110fbb866a1)"><path d="M197.85,315.33l-37.75,27-17.5,6.51,22.74,7.49S196.93,355,197.6,356s15-9,14-11.67c-.34-.9-2-4.51-4.1-8.9C203.43,326.86,197.85,315.33,197.85,315.33Z" fill="#426342"/></g><path d="M153,108.89a140.11,140.11,0,0,0-28.74,3.18c-4.39.49-8.36-2.13-8.86-5.84v0c-.5-3.71,2.66-7.11,7-7.6a113.68,113.68,0,0,0,28.74-3.18c4.39-.49,8.36,2.13,8.86,5.84v0C160.55,105,157.4,108.4,153,108.89Z" fill="#e2f2e2"/><path d="M166.1,137.17c-1.69,1-3.59,2.29-5.6,3.74-.7.51-1,2.29-1.7,2.84-1.5,1.14-3.48,1.13-5,2.43-5.52,4.66-11,10.19-14.63,15.65-2.33-4-9.13-7.19-14.06-11.58-1.54-1.37-.74-4.14-2.33-5.45-2.53-2.07-5.06-4-7.42-5.8l-11.5,2L93,152.25s10.37,25,42.18,25S185.35,143,185.35,143Z" fill="#456d45"/><path d="M99.27,129.17c3.33,2.83,45.66,33.16,45.66,33.16l-11.85,1.34-43-21.34,3-15.66Z" fill="#4e754e"/><polygon points="137.4 159.63 169.6 133 166.1 120 172.6 124 176.09 131.5 186.6 135.25 180.6 143.5 151.39 159.63 143.6 163.67 137.4 159.63" fill="#4e754e"/><path d="M116.6,151v17l2.91,7.4s-.51,1.6.75,4.93.3,8.34,2,12.34,2.86,12.64,3.19,17.65-2.57,17.35-2.57,17.35l-.26,2a15.53,15.53,0,0,1-.68-1.69c0-.19,1.32-3.44,1.32-3.44a24.26,24.26,0,0,1,.57,3.13,22.32,22.32,0,0,1-.25,2.93c-.25,1.07-1.32,5.5-1.44,5.94s-1.31,4.31-1.31,4.31" fill="none" stroke="#426342" stroke-miterlimit="10" stroke-width="2"/><path d="M156.6,152.5a6.68,6.68,0,0,1,0,3.25c-.49,1.27.75.5,0,3.25s.38,9,0,11-.5,3.62.25,7.44-.25,7.48,0,11.89,0,2.67-.14,5.42-.22,2.37-.41,7.44.69,9.06,0,9.81,1.13,1.5,0,7a46.4,46.4,0,0,0-1.17,8.67s.75,5.33,0,6.08,0,2.25,0,2.25l-.33,5.5-2.92-2.44s1.06-1.06,1.44-1.06,2.87-.94,3.06-.75a11.29,11.29,0,0,1-.06,4.88c-.5,1.75-1.91,2.75-1.8,3.56a14.6,14.6,0,0,1-.39,3.07" fill="none" stroke="#426342" stroke-miterlimit="10" stroke-width="2"/><circle cx="118.55" cy="76.28" r="3.62" fill="#444"/><circle cx="150.64" cy="72.45" r="3.45" fill="#444"/><polyline points="112.27 107 138.46 104.5 162 100.75" fill="none" stroke="#ccc696" stroke-miterlimit="10"/><polyline points="131.02 69 143.1 92.58 136.02 94.84" fill="#b2ae7d"/><polygon points="206.1 278.88 210.75 293.53 215.37 288.78 210.74 282 206.1 278.88" fill="#426342"/><polygon points="156.03 57.26 160.1 49.75 155.18 41.01 161.68 43.92 167.88 51.19 163.02 59 163.6 59.92 164.52 61.17 163.72 61.25 158.77 59.83 157.02 56.67 156.03 57.26" fill="#e2f2e2"/><polygon points="141.6 56.75 142.62 52.58 141.27 48.5 144.18 50.42 146.45 55.25 146.93 57.26 141.6 56.75" fill="#e2f2e2"/><path d="M89.22,279.09c33.52,2.51,62.95,1.83,96-.67" fill="none" stroke="#426342" stroke-miterlimit="10" stroke-width="2"/><line x1="137.46" y1="97.84" x2="139.35" y2="110.06" fill="none" stroke="#ccc696" stroke-miterlimit="10"/><line x1="132.15" y1="97.84" x2="133.85" y2="112.13" fill="none" stroke="#ccc696" stroke-miterlimit="10"/><line x1="126.46" y1="96.88" x2="127.72" y2="112.56" fill="none" stroke="#ccc696" stroke-miterlimit="10"/><line x1="120.85" y1="98.44" x2="121.6" y2="112.94" fill="none" stroke="#ccc696" stroke-miterlimit="10"/><line x1="142.76" y1="96.41" x2="145.57" y2="110.06" fill="none" stroke="#ccc696" stroke-miterlimit="10"/><line x1="148.07" y1="95.66" x2="151.85" y2="109.28" fill="none" stroke="#ccc696" stroke-miterlimit="10"/><line x1="154.1" y1="95.09" x2="156.88" y2="107.94" fill="none" stroke="#ccc696" stroke-miterlimit="10"/><polygon points="93.98 79.29 103.01 72.91 103.97 76.77 95.6 80.74 93.98 79.29" fill="#444"/><path d="M103,72.46,121.6,66l8,1L131,84.63,113.1,89,104,77.69l-.58-3.17Zm3.59,2.37,6.75,10.7,15.25-2.86V75L128,69l-6.46-1-15,4.83Z" fill="#444"/><path d="M135.62,66.5l7.73-2.5,19.25,1v4L161,81.74l-18.94.34Zm2.59,1.16L140.06,73l2.64,6.55,16.4-.9L160.6,69V66l-16.75-.5Z" fill="#444"/><polygon points="162.6 66 164.6 66 165.01 69 162.54 69.51 162.6 66" fill="#444"/><polyline points="129.58 71.58 132.89 70.21 137.93 70.9 137.6 69.51 132.6 68.63 129.18 70.33" fill="#444"/><path d="M95.85,105.69l2.33,4.37s.67.63.8,3.53-1,2.91,0,5.41.29,5.17,1.62,6.5.17-1.33,5,7,7.07,9.87,9.2,14.93,3.8,9.57,7.8,13.57,9.42,6.93,11,9.38,3.63,5.41,3.5,6.12,1.18-2.67,1.18-2.67,1,1,2.86-1,4.2-1.66,5.35-4.33,1.29-5.37,3-7.85,3.51-2.82,4.68-6.32,1.26-4.91,3.83-9.16a33.42,33.42,0,0,1,6.63-8c1.13-.93,5.12-9.34,5.83-13.34s3-6.08,1.08-10.45-3.12-5.78-3.5-8.66l-.37-2.89-.13-3.39" fill="none" stroke="#444" stroke-miterlimit="10"/><path d="M137.06,176.5a4.81,4.81,0,0,1,0,1.5c-.13.83.13,3.67,0,4.33l-.13.67a9.51,9.51,0,0,1,.19,1.83" fill="none" stroke="#444" stroke-miterlimit="10" stroke-width="2"/><path d="M136.93,183a76.82,76.82,0,0,1,.31,7.83c-.18,2.17-1.28,9.1-1.28,11.8s-5.56,29.41-5.74,32.75-.93,3.25-.79,7.43-3.62,14.36-6.81,17.69-4.35,5.5-11.19,8.83S80.62,275.51,78,280.67s-5.1,4.83-2.93,10.83,10,12.61,10,12.61" fill="none" stroke="#548bed" stroke-miterlimit="10" stroke-width="2"/></svg>
