<svg xmlns="http://www.w3.org/2000/svg" viewBox="0 0 1540.42 564.27"><title>wipe2</title><g id="b3341c11-1a2d-4e42-ba4e-e84276caee55" data-name="Layer 11"><polygon points="186.05 -145.16 -38.42 776.49 2008.05 790.99 1974.05 -191.03 186.05 -145.16" style="fill:#3c3c44"/><line x1="220.82" y1="-28.62" x2="77.87" y2="688.38" style="fill:none;stroke:#545454;stroke-miterlimit:10;stroke-width:4px"/><line x1="1531.73" y1="-170.4" x2="1558.4" y2="560.23" style="fill:none;stroke:#545454;stroke-miterlimit:10"/><line x1="1482.1" y1="-159.27" x2="1502.39" y2="571.56" style="fill:none;stroke:#545454;stroke-miterlimit:10"/><line x1="1432.37" y1="-148.58" x2="1446.28" y2="582.4" style="fill:none;stroke:#545454;stroke-miterlimit:10"/><line x1="1382.55" y1="-138.32" x2="1390.09" y2="592.75" style="fill:none;stroke:#545454;stroke-miterlimit:10"/><line x1="1332.65" y1="-128.5" x2="1333.8" y2="602.61" style="fill:none;stroke:#545454;stroke-miterlimit:10"/><line x1="1282.66" y1="-119.12" x2="1277.43" y2="611.98" style="fill:none;stroke:#545454;stroke-miterlimit:10"/><line x1="1232.59" y1="-110.17" x2="1220.98" y2="620.85" style="fill:none;stroke:#545454;stroke-miterlimit:10"/><line x1="1182.44" y1="-101.66" x2="1164.46" y2="629.24" style="fill:none;stroke:#545454;stroke-miterlimit:10"/><line x1="1132.22" y1="-93.58" x2="1107.86" y2="637.12" style="fill:none;stroke:#545454;stroke-miterlimit:10"/><line x1="1081.94" y1="-85.95" x2="1051.2" y2="644.52" style="fill:none;stroke:#545454;stroke-miterlimit:10"/><line x1="1031.59" y1="-78.75" x2="994.47" y2="651.42" style="fill:none;stroke:#545454;stroke-miterlimit:10"/><line x1="981.17" y1="-71.99" x2="937.69" y2="657.83" style="fill:none;stroke:#545454;stroke-miterlimit:10"/><line x1="930.7" y1="-65.68" x2="880.86" y2="663.73" style="fill:none;stroke:#545454;stroke-miterlimit:10"/><line x1="880.18" y1="-59.8" x2="823.97" y2="669.15" style="fill:none;stroke:#545454;stroke-miterlimit:10"/><line x1="829.61" y1="-54.37" x2="767.04" y2="674.06" style="fill:none;stroke:#545454;stroke-miterlimit:10"/><line x1="778.99" y1="-49.37" x2="710.07" y2="678.48" style="fill:none;stroke:#545454;stroke-miterlimit:10"/><line x1="728.33" y1="-44.82" x2="653.06" y2="682.41" style="fill:none;stroke:#545454;stroke-miterlimit:10"/><line x1="677.64" y1="-40.71" x2="596.02" y2="685.83" style="fill:none;stroke:#545454;stroke-miterlimit:10"/><line x1="626.91" y1="-37.05" x2="538.95" y2="688.76" style="fill:none;stroke:#545454;stroke-miterlimit:10"/><line x1="576.15" y1="-33.82" x2="481.86" y2="691.19" style="fill:none;stroke:#545454;stroke-miterlimit:10"/><line x1="525.36" y1="-31.04" x2="424.75" y2="693.12" style="fill:none;stroke:#545454;stroke-miterlimit:10"/><line x1="474.55" y1="-28.7" x2="367.62" y2="694.55" style="fill:none;stroke:#545454;stroke-miterlimit:10"/><line x1="423.72" y1="-26.81" x2="310.49" y2="695.48" style="fill:none;stroke:#545454;stroke-miterlimit:10"/><line x1="372.88" y1="-25.36" x2="253.35" y2="695.92" style="fill:none;stroke:#545454;stroke-miterlimit:10"/><line x1="322.03" y1="-24.35" x2="196.21" y2="695.85" style="fill:none;stroke:#545454;stroke-miterlimit:10"/><line x1="271.17" y1="-23.79" x2="139.07" y2="695.29" style="fill:none;stroke:#545454;stroke-miterlimit:10"/><line x1="105.28" y1="551.04" x2="1662.47" y2="551.04" style="fill:none;stroke:#545454;stroke-miterlimit:10"/><line x1="114.33" y1="508.04" x2="1656.1" y2="508.04" style="fill:none;stroke:#545454;stroke-miterlimit:10"/><line x1="123.29" y1="465.04" x2="1649.79" y2="465.04" style="fill:none;stroke:#545454;stroke-miterlimit:10"/><line x1="132.15" y1="422.04" x2="1643.54" y2="422.04" style="fill:none;stroke:#545454;stroke-miterlimit:10"/><line x1="140.94" y1="379.04" x2="1637.36" y2="379.04" style="fill:none;stroke:#545454;stroke-miterlimit:10"/><line x1="149.63" y1="336.04" x2="1631.24" y2="336.04" style="fill:none;stroke:#545454;stroke-miterlimit:10"/><line x1="158.24" y1="293.04" x2="1625.18" y2="293.04" style="fill:none;stroke:#545454;stroke-miterlimit:10"/><line x1="166.76" y1="250.04" x2="1619.18" y2="250.04" style="fill:none;stroke:#545454;stroke-miterlimit:10"/><line x1="175.2" y1="207.04" x2="1613.24" y2="207.04" style="fill:none;stroke:#545454;stroke-miterlimit:10"/><line x1="183.56" y1="164.04" x2="1607.35" y2="164.04" style="fill:none;stroke:#545454;stroke-miterlimit:10"/><line x1="191.83" y1="121.04" x2="1601.53" y2="121.04" style="fill:none;stroke:#545454;stroke-miterlimit:10"/><line x1="200.02" y1="78.04" x2="1595.76" y2="78.04" style="fill:none;stroke:#545454;stroke-miterlimit:10"/><line x1="208.13" y1="35.04" x2="1590.05" y2="35.04" style="fill:none;stroke:#545454;stroke-miterlimit:10"/></g></svg>