<svg id="280ca4bd-08f8-438c-bffb-4777a7c60cad" data-name="Layer 1" xmlns="http://www.w3.org/2000/svg" viewBox="0 0 1595.06 933.24"><title>wipe3</title><g id="de6caa10-cde9-4283-9858-b299fb197444" data-name="9910b8c7-274c-443c-a183-6ca4c35f424f"><polygon points="149.42 11.67 0 933.24 1595.06 922.51 1522.43 79.45 149.42 11.67" style="fill:#465648"/><line x1="202.83" y1="127.73" x2="96" y2="841.82" style="fill:none;stroke:#4c7249;stroke-miterlimit:10;stroke-width:4px"/><line x1="1471.44" y1="84.35" x2="1522.43" y2="846.32" style="fill:none;stroke:#4c7249;stroke-miterlimit:10;stroke-width:4px"/><path d="M139.11,551H1529.28M145.18,508H1526.43M151.19,465H1523.57M157.14,422H1520.72M163,379H1517.87m-1349-43H1514.93M174.65,293H1512.16M180.37,250H1509.31M186,207H1506.45M191.64,164h1312M197.19,121H1500.75M202.69,78h1295.2M208.13,35H1496.59m-14.25-191.36,48.15,725.6m-97.9-715,41.82,726m-91.66-715.85,35.48,726.32m-85.41-716.62L1362,600.7m-79.16-717.35,22.81,726.84m-72.89-718,16.46,727M1182.56-99.43l10.12,727.12M1132.33-91.48l3.77,727.18M1082-84l-2.58,727.19M1031.66-76.9l-8.92,727.14m-41.5-720.5L966,656.77M930.76-64.07,909.15,662.8M880.22-58.32l-28,726.66M829.64-53,795.35,673.38M779-48.14,738.39,677.92m-10-721.63L681.39,682M677.65-39.72l-53.3,725.24m2.56-721.7L567.29,688.57m8.86-721.65L510.2,691.12M525.36-30.42,453.09,693.17M474.55-28.21,396,694.73M423.72-26.44,338.84,695.79m34-720.9L281.7,696.34M322-24.23,224.55,696.4M271.17-23.79,167.41,696" transform="translate(-17.99 156.35)" style="fill:none;stroke:#4c7249;stroke-miterlimit:10"/></g></svg>