<svg id="bac5b65d-b549-4dd6-8d16-e3b02892e886" data-name="Layer 1" xmlns="http://www.w3.org/2000/svg" viewBox="0 0 1721.91 564.27"><title>wipe3</title><g id="b80429d3-4a92-4410-9f6f-7fe2517992bb" data-name="9910b8c7-274c-443c-a183-6ca4c35f424f"><polygon points="143.95 0 17.99 776.89 1613.05 766.15 1547.05 0 143.95 0" style="fill:#465648"/><line x1="220.82" y1="-28.62" x2="113.99" y2="685.47" style="fill:none;stroke:#4c7249;stroke-miterlimit:10;stroke-width:4px"/><line x1="1493.38" y1="-13.04" x2="1540.42" y2="689.97" style="fill:none;stroke:#4c7249;stroke-miterlimit:10;stroke-width:4px"/><path d="M139.11,551H1529.28M145.18,508H1526.43M151.19,465H1523.57M157.14,422H1520.72M163,379H1517.87m-1349-43H1514.93M174.65,293H1512.16M180.37,250H1509.31M186,207H1506.45M191.64,164h1312M197.19,121H1500.75M202.69,78h1295.2M208.13,35H1496.59M1493.38-13l37.11,582.32M1440.23-13l34.18,593.28M1388.74-13l29.49,603.75M1337.35-13,1362,600.7M1286.06-13l19.56,623.23M1234.88-13l14.31,632.22M1183.76-13l8.92,640.73M1132.74-13l3.36,648.74M1081.78-13l-2.33,656.26M1030.88-13l-8.14,663.28M980-13,966,656.77M929.24-13,909.15,662.8M878.48-13,852.27,668.34m-22.63-688L795.35,673.38M779-14.82,738.39,677.92m-10-688.31L681.39,682M677.65-6.4l-53.3,691.92M625-13,567.29,688.57m7.2-703.39L510.2,691.12M525.36-30.42,453.09,693.17M474.55-28.21,396,694.73M423.72-26.44,338.84,695.79m34-720.9L281.7,696.34M322-24.23,224.55,696.4M271.17-23.79,167.41,696" style="fill:none;stroke:#4c7249;stroke-miterlimit:10"/></g></svg>