<svg xmlns:xlink="http://www.w3.org/1999/xlink" id="28dbc399-6db9-4249-85c0-88ad93612eb6" data-name="aad3e52a-eb7c-4601-8e97-17027a8b7349" xmlns="http://www.w3.org/2000/svg" viewBox="0 0 2479.68 757.48"><defs><clipPath id="39c825d8-83de-45d1-b10f-f351997b0d5e"><rect x="-9.36" width="2489.04" height="757.48" style="fill:none"/></clipPath></defs><title>wipe1</title><g style="clip-path:url(#39c825d8-83de-45d1-b10f-f351997b0d5e)"><g id="fb21e236-0602-4410-8d1f-5c128c9bad8a" data-name="da274aff-dbe3-4693-8ee6-21adb86e47c2"><polygon id="78137ccc-f5d8-490e-845a-9a9efcf1a256" data-name="6312838c-a996-4329-bd57-4636956f7f67" points="2467.88 1166.66 -311.99 1166.66 897.96 -344.99 2479.68 -344.99 2467.88 1166.66" style="fill:#ffe108"/><g id="0b7a3f8c-23f7-497a-a178-f89fa278a6c9" data-name="a15bd586-ab7a-4ca9-a3e1-9ca581f25461"><line x1="914.87" y1="-331.5" x2="-281.31" y2="1159.16" style="fill:none;stroke:#05f;stroke-miterlimit:10;stroke-width:7px;stroke-dasharray:12.020000457763672,12.020000457763672"/></g><g id="a3e8dba9-f7d2-46ff-84e3-c08006220636" data-name="c937c759-f14a-4f84-973c-4fec5add645c"><path id="fdfcdaf4-a6a5-46ce-96f6-cde14d271f67" data-name="3eff99b6-b7e0-41f3-b24d-e289df9e8fd5" d="M17.19,840.26h0a3.2,3.2,0,0,1-.63-4.61h0a3.51,3.51,0,0,1,4.8-.6h0a3.23,3.23,0,0,1,.62,4.63h0a3.5,3.5,0,0,1-4.79.6Zm8.37-10.42h0a3.23,3.23,0,0,1-.62-4.63h0a3.53,3.53,0,0,1,4.81-.59h0a3.24,3.24,0,0,1,.61,4.64h0a3.51,3.51,0,0,1-4.79.58h0Zm8.37-10.42h0a3.2,3.2,0,0,1-.62-4.61h0a3.5,3.5,0,0,1,4.78-.6h0a3.22,3.22,0,0,1,.62,4.63h0a3.52,3.52,0,0,1-4.8.56ZM42.3,809h0a3.22,3.22,0,0,1-.62-4.62h0a3.52,3.52,0,0,1,4.8-.6h0a3.21,3.21,0,0,1,.62,4.61v0h0a3.52,3.52,0,0,1-4.79.56Zm8.37-10.42h0a3.21,3.21,0,0,1-.62-4.61h0a3.51,3.51,0,0,1,4.79-.6h0a3.21,3.21,0,0,1,.62,4.61v0h0a3.52,3.52,0,0,1-4.8.54Zm8.38-10.42h0a3.21,3.21,0,0,1-.62-4.61h0a3.5,3.5,0,0,1,4.8-.59h0a3.22,3.22,0,0,1,.62,4.62h0a3.51,3.51,0,0,1-4.81.54h0Zm8.37-10.41h0a3.22,3.22,0,0,1-.62-4.63h0a3.51,3.51,0,0,1,4.8-.6h0a3.23,3.23,0,0,1,.61,4.63h0a3.5,3.5,0,0,1-4.8.51h0Zm8.36-10.42h0a3.21,3.21,0,0,1-.62-4.61l0,0h0a3.5,3.5,0,0,1,4.78-.59h0a3.2,3.2,0,0,1,.62,4.62h0a3.53,3.53,0,0,1-4.81.5Zm8.38-10.42h0a3.23,3.23,0,0,1-.62-4.63h0a3.51,3.51,0,0,1,4.78-.73h0a3.21,3.21,0,0,1,.62,4.61v0h0a3.5,3.5,0,0,1-4.78.62h0Zm8.37-10.42h0a3.23,3.23,0,0,1-.61-4.64h0a3.51,3.51,0,0,1,4.79-.59h0a3.22,3.22,0,0,1,.61,4.63h0a3.49,3.49,0,0,1-4.8.47Zm8.38-10.42h0a3.21,3.21,0,0,1-.62-4.61v0h0a3.51,3.51,0,0,1,4.8-.59h0a3.22,3.22,0,0,1,.62,4.62h0a3.51,3.51,0,0,1-4.81.47Zm8.37-10.42h0a3.22,3.22,0,0,1-.62-4.63h0a3.53,3.53,0,0,1,4.81-.59h0a3.2,3.2,0,0,1,.61,4.61h0a3.5,3.5,0,0,1-4.79.46Zm8.36-10.42h0a3.21,3.21,0,0,1-.62-4.61h0a3.5,3.5,0,0,1,4.79-.6h0a3.2,3.2,0,0,1,.62,4.62h0a3.54,3.54,0,0,1-4.81.44ZM126,704.81h0a3.22,3.22,0,0,1-.62-4.62h0a3.5,3.5,0,0,1,4.8-.6h0a3.2,3.2,0,0,1,.63,4.61h0a3.51,3.51,0,0,1-4.8.43Zm8.37-10.42h0a3.21,3.21,0,0,1-.62-4.61h0a3.5,3.5,0,0,1,4.79-.6h0a3.22,3.22,0,0,1,.61,4.63h0a3.51,3.51,0,0,1-4.8.4ZM142.77,684h0a3.21,3.21,0,0,1-.62-4.61h0a3.49,3.49,0,0,1,4.78-.6h0a3.22,3.22,0,0,1,.62,4.62h0a3.51,3.51,0,0,1-4.81.4Zm8.37-10.42h0a3.2,3.2,0,0,1-.62-4.62h0a3.5,3.5,0,0,1,4.79-.6h0a3.2,3.2,0,0,1,.62,4.61h0a3.49,3.49,0,0,1-4.78.39Zm8.36-10.42h0a3.21,3.21,0,0,1-.62-4.61h0a3.5,3.5,0,0,1,4.79-.6h0a3.2,3.2,0,0,1,.62,4.62h0a3.52,3.52,0,0,1-4.81.37Zm8.38-10.42h0a3.22,3.22,0,0,1-.62-4.62h0a3.51,3.51,0,0,1,4.8-.6h0a3.2,3.2,0,0,1,.63,4.61h0a3.51,3.51,0,0,1-4.8.37Zm8.37-10.42h0a3.21,3.21,0,0,1-.62-4.61h0a3.5,3.5,0,0,1,4.78-.61h0a3.21,3.21,0,0,1,.62,4.61h0a3.5,3.5,0,0,1-4.8.35Zm8.38-10.42h0a3.2,3.2,0,0,1-.62-4.61h0a3.49,3.49,0,0,1,4.78-.6h0a3.22,3.22,0,0,1,.62,4.62h0a3.51,3.51,0,0,1-4.81.34ZM193,621.45h0a3.2,3.2,0,0,1-.62-4.62h0a3.5,3.5,0,0,1,4.79-.6h0a3.2,3.2,0,0,1,.62,4.61h0a3.49,3.49,0,0,1-4.78.33ZM201.36,611h0a3.23,3.23,0,0,1-.61-4.63h0a3.5,3.5,0,0,1,4.79-.6h0a3.23,3.23,0,0,1,.62,4.63h0a3.53,3.53,0,0,1-4.81.31Zm8.38-10.42h0a3.22,3.22,0,0,1-.62-4.62h0a3.51,3.51,0,0,1,4.8-.6h0a3.2,3.2,0,0,1,.63,4.61v0h0a3.53,3.53,0,0,1-4.8.3Zm8.37-10.42h0a3.21,3.21,0,0,1-.62-4.62h0a3.54,3.54,0,0,1,4.81-.6h0a3.21,3.21,0,0,1,.62,4.61v0h0a3.51,3.51,0,0,1-4.77.28Zm8.38-10.42h0a3.2,3.2,0,0,1-.62-4.61h0a3.5,3.5,0,0,1,4.78-.6h0a3.22,3.22,0,0,1,.61,4.63h0a3.5,3.5,0,0,1-4.8.26Zm8.36-10.42h0a3.21,3.21,0,0,1-.61-4.62h0a3.5,3.5,0,0,1,4.79-.6h0a3.2,3.2,0,0,1,.62,4.61v0h0a3.51,3.51,0,0,1-4.79.26Zm8.37-10.42h0a3.21,3.21,0,0,1-.62-4.61h0a3.51,3.51,0,0,1,4.79-.61h0a3.24,3.24,0,0,1,.62,4.64h0a3.53,3.53,0,0,1-4.81.23Zm8.38-10.42h0a3.2,3.2,0,0,1-.63-4.6v0h0a3.51,3.51,0,0,1,4.79-.6h0a3.23,3.23,0,0,1,.62,4.63h0a3.52,3.52,0,0,1-4.83.22ZM260,538.09h0a3.21,3.21,0,0,1-.62-4.62h0a3.53,3.53,0,0,1,4.81-.59h0a3.21,3.21,0,0,1,.62,4.61h0a3.51,3.51,0,0,1-4.8.22Zm8.38-10.41h0a3.23,3.23,0,0,1-.61-4.64h0a3.5,3.5,0,0,1,4.78-.59h0a3.2,3.2,0,0,1,.62,4.62h0a3.5,3.5,0,0,1-4.8.21Zm8.36-10.42h0a3.23,3.23,0,0,1-.62-4.63h0a3.5,3.5,0,0,1,4.8-.59h0a3.2,3.2,0,0,1,.62,4.61h0a3.52,3.52,0,0,1-4.79.2Zm8.37-10.42h0a3.21,3.21,0,0,1-.62-4.61v0h0a3.51,3.51,0,0,1,4.8-.59h0a3.21,3.21,0,0,1,.62,4.61h0a3.5,3.5,0,0,1-4.8.18Zm8.38-10.42h0a3.21,3.21,0,0,1-.62-4.61v0h0a3.51,3.51,0,0,1,4.79-.59h0a3.22,3.22,0,0,1,.62,4.62h0a3.52,3.52,0,0,1-4.81.16ZM301.83,486h0a3.22,3.22,0,0,1-.62-4.63h0a3.54,3.54,0,0,1,4.81-.59h0a3.21,3.21,0,0,1,.62,4.61h0a3.5,3.5,0,0,1-4.8.15Zm8.37-10.42h0a3.22,3.22,0,0,1-.61-4.63h0a3.49,3.49,0,0,1,4.78-.6h0A3.22,3.22,0,0,1,315,475h0a3.51,3.51,0,0,1-4.8.13Zm8.37-10.42h0a3.22,3.22,0,0,1-.62-4.62h0a3.5,3.5,0,0,1,4.79-.6h0a3.2,3.2,0,0,1,.62,4.61h0a3.52,3.52,0,0,1-4.79.12Zm8.37-10.42h0a3.21,3.21,0,0,1-.62-4.61h0a3.5,3.5,0,0,1,4.8-.6h0a3.21,3.21,0,0,1,.62,4.61h0a3.5,3.5,0,0,1-4.8.11Zm8.38-10.42h0a3.21,3.21,0,0,1-.62-4.61h0a3.49,3.49,0,0,1,4.78-.6h0a3.22,3.22,0,0,1,.62,4.62h0a3.51,3.51,0,0,1-4.81.1Zm8.37-10.42h0a3.2,3.2,0,0,1-.62-4.62h0a3.53,3.53,0,0,1,4.81-.6h0a3.21,3.21,0,0,1,.62,4.61h0a3.52,3.52,0,0,1-4.8.1Zm8.37-10.42h0a3.2,3.2,0,0,1-.62-4.61h0a3.49,3.49,0,0,1,4.78-.6h0a3.23,3.23,0,0,1,.62,4.63h0a3.51,3.51,0,0,1-4.8.06Zm8.37-10.42h0a3.22,3.22,0,0,1-.62-4.62h0a3.5,3.5,0,0,1,4.79-.6h0a3.21,3.21,0,0,1,.62,4.61h0a3.52,3.52,0,0,1-4.79.06Zm8.37-10.42h0a3.21,3.21,0,0,1-.62-4.61h0a3.51,3.51,0,0,1,4.8-.6h0a3.21,3.21,0,0,1,.62,4.61h0a3.51,3.51,0,0,1-4.8,0Zm8.38-10.42h0a3.22,3.22,0,0,1-.61-4.63h0a3.49,3.49,0,0,1,4.78-.6h0a3.23,3.23,0,0,1,.62,4.63h0a3.5,3.5,0,0,1-4.81,0Zm8.37-10.42h0a3.2,3.2,0,0,1-.62-4.62h0a3.53,3.53,0,0,1,4.81-.59h0a3.21,3.21,0,0,1,.62,4.61h0a3.51,3.51,0,0,1-4.8,0Zm8.36-10.42h0a3.21,3.21,0,0,1-.62-4.61h0a3.52,3.52,0,0,1,4.8-.6h0a3.2,3.2,0,0,1,.62,4.62h0a3.52,3.52,0,0,1-4.81,0ZM402.29,361h0a3.22,3.22,0,0,1-.62-4.62h0a3.5,3.5,0,0,1,4.79-.6h0a3.2,3.2,0,0,1,.63,4.61h0a3.51,3.51,0,0,1-4.8,0Zm8.37-10.42h0a3.21,3.21,0,0,1-.62-4.62h0a3.54,3.54,0,0,1,4.81-.6h0a3.21,3.21,0,0,1,.62,4.61v0h0a3.51,3.51,0,0,1-4.8,0ZM419,340.12h0a3.22,3.22,0,0,1-.61-4.63h0a3.5,3.5,0,0,1,4.78-.6h0a3.24,3.24,0,0,1,.62,4.64h0a3.51,3.51,0,0,1-4.81,0Zm8.37-10.42h0a3.2,3.2,0,0,1-.62-4.62h0a3.5,3.5,0,0,1,4.78-.6h0a3.2,3.2,0,0,1,.61,4.61v0h0a3.51,3.51,0,0,1-4.78-.05Zm8.36-10.42h0a3.21,3.21,0,0,1-.62-4.61h0a3.52,3.52,0,0,1,4.8-.6h0a3.22,3.22,0,0,1,.62,4.63h0a3.53,3.53,0,0,1-4.81-.06Zm8.38-10.42h0a3.2,3.2,0,0,1-.63-4.6v0h0a3.51,3.51,0,0,1,4.79-.6h0a3.23,3.23,0,0,1,.62,4.63h0a3.51,3.51,0,0,1-4.8-.08Zm8.37-10.42h0a3.21,3.21,0,0,1-.62-4.61h0a3.51,3.51,0,0,1,4.8-.6h0a3.21,3.21,0,0,1,.62,4.61v0h0a3.52,3.52,0,0,1-4.8-.08ZM460.9,288h0a3.21,3.21,0,0,1-.62-4.61h0a3.5,3.5,0,0,1,4.78-.61l0,0h0a3.23,3.23,0,0,1,.62,4.63h0a3.5,3.5,0,0,1-4.81-.11Zm8.37-10.41h0a3.22,3.22,0,0,1-.62-4.63h0a3.49,3.49,0,0,1,4.78-.59h0a3.2,3.2,0,0,1,.62,4.61h0a3.51,3.51,0,0,1-4.78-.12Zm8.36-10.42h0a3.21,3.21,0,0,1-.62-4.61v0h0a3.5,3.5,0,0,1,4.8-.59h0a3.2,3.2,0,0,1,.62,4.61h0a3.51,3.51,0,0,1-4.8-.12ZM486,256.77h0a3.24,3.24,0,0,1-.62-4.64h0a3.51,3.51,0,0,1,4.79-.59h0a3.21,3.21,0,0,1,.63,4.62h0A3.51,3.51,0,0,1,486,256Zm8.37-10.42h0a3.22,3.22,0,0,1-.62-4.63h0a3.54,3.54,0,0,1,4.81-.59h0a3.21,3.21,0,0,1,.62,4.61h0a3.52,3.52,0,0,1-4.8-.14Zm8.38-10.42h0a3.2,3.2,0,0,1-.62-4.61v0h0a3.51,3.51,0,0,1,4.8-.59h0a3.22,3.22,0,0,1,.62,4.62h0a3.5,3.5,0,0,1-4.81-.2Zm8.4-11.22h0a3.22,3.22,0,0,1-.62-4.62h0a3.53,3.53,0,0,1,4.81-.59h0a3.2,3.2,0,0,1,.62,4.61h0A3.51,3.51,0,0,1,511.16,224.71Zm8.37-10.42h0a3.21,3.21,0,0,1-.62-4.61h0a3.51,3.51,0,0,1,4.8-.6h0a3.22,3.22,0,0,1,.62,4.63h0a3.53,3.53,0,0,1-4.82.61l0,0Zm8.35-10.42h0a3.21,3.21,0,0,1-.63-4.62h0a3.51,3.51,0,0,1,4.79-.6h0a3.23,3.23,0,0,1,.62,4.63h0a3.5,3.5,0,0,1-4.79.6Zm8.37-10.42h0a3.21,3.21,0,0,1-.62-4.62h0a3.53,3.53,0,0,1,4.81-.59h0a3.21,3.21,0,0,1,.62,4.61v0h0a3.51,3.51,0,0,1-4.8.59h0ZM544.6,183h0a3.2,3.2,0,0,1-.62-4.61h0a3.51,3.51,0,0,1,4.8-.6h0a3.23,3.23,0,0,1,.62,4.63h0a3.51,3.51,0,0,1-4.79.61ZM553,172.61h0a3.21,3.21,0,0,1-.61-4.62h0a3.5,3.5,0,0,1,4.78-.6h0a3.2,3.2,0,0,1,.62,4.61v0h0a3.5,3.5,0,0,1-4.77.58Z" style="fill:#05f"/></g><g id="6a875f5e-fe94-42a0-96f8-81ebaa9ed3f8" data-name="d9fda299-41d8-41af-ace4-a9ed6403cb3a"><polygon id="cad12a6e-36b5-45ae-b1d0-a37c695a3bac" data-name="70ea1c38-3648-48d0-8e78-f861b99ade76" points="273.94 514.78 276.04 512.16 281.49 516.21 279.38 518.84 273.94 514.78" style="fill:#05f"/><path id="5fb6b5fc-b7b0-426c-8415-7babd2be0333" data-name="9df2dabf-b393-4790-aaec-ee809072a5f1" d="M-267.49,1195h0a3.23,3.23,0,0,1-.62-4.63h0a3.5,3.5,0,0,1,4.79-.59h0a3.22,3.22,0,0,1,.61,4.63h0a3.51,3.51,0,0,1-4.79.59Zm8.38-10.41h0a3.21,3.21,0,0,1-.62-4.61v0h0a3.5,3.5,0,0,1,4.79-.59h0a3.22,3.22,0,0,1,.62,4.62h0a3.5,3.5,0,0,1-4.8.58h0Zm8.37-10.42h0a3.22,3.22,0,0,1-.62-4.63h0a3.51,3.51,0,0,1,4.8-.59h0a3.21,3.21,0,0,1,.62,4.61h0a3.51,3.51,0,0,1-4.79.57Zm8.37-10.42h0a3.23,3.23,0,0,1-.61-4.64h0a3.5,3.5,0,0,1,4.78-.59h0a3.2,3.2,0,0,1,.62,4.61h0a3.5,3.5,0,0,1-4.79.56h0Zm8.37-10.42h0a3.22,3.22,0,0,1-.63-4.61v0h0a3.51,3.51,0,0,1,4.8-.59h0a3.2,3.2,0,0,1,.62,4.62h0a3.5,3.5,0,0,1-4.79.54h0Zm8.37-10.42h0a3.23,3.23,0,0,1-.62-4.63h0a3.51,3.51,0,0,1,4.8-.6h0a3.22,3.22,0,0,1,.61,4.63h0a3.51,3.51,0,0,1-4.8.52h0Zm8.37-10.42h0a3.21,3.21,0,0,1-.62-4.61v0h0a3.5,3.5,0,0,1,4.78-.59h0a3.22,3.22,0,0,1,.62,4.62h0a3.53,3.53,0,0,1-4.81.51Zm8.38-10.42h0a3.2,3.2,0,0,1-.62-4.62h0a3.5,3.5,0,0,1,4.8-.6h0a3.21,3.21,0,0,1,.62,4.61h0a3.5,3.5,0,0,1-4.79.5Zm8.36-10.42h0a3.22,3.22,0,0,1-.6-4.63h0a3.49,3.49,0,0,1,4.78-.6h0a3.22,3.22,0,0,1,.61,4.63h0a3.49,3.49,0,0,1-4.8.48Zm8.38-10.42h0a3.21,3.21,0,0,1-.63-4.61h0a3.5,3.5,0,0,1,4.79-.6h0a3.21,3.21,0,0,1,.62,4.62h0a3.51,3.51,0,0,1-4.8.47Zm8.37-10.42h0a3.21,3.21,0,0,1-.62-4.62h0a3.53,3.53,0,0,1,4.81-.6h0a3.21,3.21,0,0,1,.62,4.61h0a3.5,3.5,0,0,1-4.8.47Zm8.37-10.42h0a3.21,3.21,0,0,1-.62-4.61h0a3.49,3.49,0,0,1,4.78-.6h0a3.22,3.22,0,0,1,.62,4.62h0a3.54,3.54,0,0,1-4.81.45Zm8.38-10.42h0a3.2,3.2,0,0,1-.62-4.62h0a3.51,3.51,0,0,1,4.8-.6h0a3.21,3.21,0,0,1,.62,4.61h0a3.49,3.49,0,0,1-4.78.44Zm8.36-10.42h0a3.23,3.23,0,0,1-.61-4.63h0a3.5,3.5,0,0,1,4.79-.6h0a3.22,3.22,0,0,1,.61,4.63h0a3.5,3.5,0,0,1-4.8.42Zm8.38-10.42h0a3.21,3.21,0,0,1-.62-4.61h0a3.5,3.5,0,0,1,4.79-.6h0a3.21,3.21,0,0,1,.62,4.62h0a3.51,3.51,0,0,1-4.81.41Zm8.37-10.42h0a3.21,3.21,0,0,1-.62-4.62h0a3.53,3.53,0,0,1,4.81-.6h0a3.21,3.21,0,0,1,.62,4.61h0a3.49,3.49,0,0,1-4.8.4Zm8.37-10.42h0a3.22,3.22,0,0,1-.61-4.63h0a3.49,3.49,0,0,1,4.78-.6h0a3.22,3.22,0,0,1,.62,4.62h0a3.5,3.5,0,0,1-4.81.39Zm8.38-10.42h0a3.2,3.2,0,0,1-.62-4.62h0a3.5,3.5,0,0,1,4.79-.6h0a3.21,3.21,0,0,1,.64,4.61l0,0h0a3.5,3.5,0,0,1-4.79.37Zm8.36-10.42h0a3.21,3.21,0,0,1-.62-4.61h0a3.51,3.51,0,0,1,4.79-.61h0a3.23,3.23,0,0,1,.61,4.64h0a3.52,3.52,0,0,1-4.8.31Zm8.38-10.42h0a3.21,3.21,0,0,1-.62-4.61h0a3.51,3.51,0,0,1,4.79-.6h0a3.22,3.22,0,0,1,.62,4.63h0a3.53,3.53,0,0,1-4.81.31Zm8.37-10.42h0a3.21,3.21,0,0,1-.62-4.62h0a3.51,3.51,0,0,1,4.8-.6h0a3.21,3.21,0,0,1,.62,4.61v0h0a3.51,3.51,0,0,1-4.79.32Zm8.37-10.42h0a3.21,3.21,0,0,1-.61-4.63h0a3.5,3.5,0,0,1,4.78-.6h0a3.25,3.25,0,0,1,.62,4.64h0a3.53,3.53,0,0,1-4.81.31Zm8.38-10.42h0a3.2,3.2,0,0,1-.62-4.62h0a3.5,3.5,0,0,1,4.79-.6h0a3.2,3.2,0,0,1,.62,4.61v0h0a3.5,3.5,0,0,1-4.78.32ZM-74.89,955h0a3.21,3.21,0,0,1-.62-4.61h0a3.51,3.51,0,0,1,4.8-.6h0a3.21,3.21,0,0,1,.62,4.61h0a3.49,3.49,0,0,1-4.78.61Zm8.38-10.42h0a3.21,3.21,0,0,1-.62-4.61h0a3.5,3.5,0,0,1,4.79-.6h0A3.22,3.22,0,0,1-61.7,944h0a3.52,3.52,0,0,1-4.8.64l-.06,0Zm8.34-10.42h0a3.21,3.21,0,0,1-.62-4.62h0A3.51,3.51,0,0,1-54,929h0a3.21,3.21,0,0,1,.62,4.61h0A3.5,3.5,0,0,1-58.17,934.19Zm8.37-10.42h0a3.22,3.22,0,0,1-.61-4.63h0a3.49,3.49,0,0,1,4.78-.6h0a3.23,3.23,0,0,1,.61,4.63h0a3.51,3.51,0,0,1-4.82.53h0Zm8.37-10.42h0a3.22,3.22,0,0,1-.62-4.62h0a3.5,3.5,0,0,1,4.79-.6h0a3.2,3.2,0,0,1,.63,4.61h0a3.51,3.51,0,0,1-4.81.53h0Zm8.37-10.42h0a3.22,3.22,0,0,1-.62-4.62h0a3.54,3.54,0,0,1,4.81-.6h0a3.21,3.21,0,0,1,.62,4.61h0a3.49,3.49,0,0,1-4.79.52h0Zm8.37-10.42h0a3.21,3.21,0,0,1-.62-4.61h0a3.5,3.5,0,0,1,4.79-.6h0a3.22,3.22,0,0,1,.62,4.62h0a3.52,3.52,0,0,1-4.83.51l0,0Zm8.38-10.42h0a3.2,3.2,0,0,1-.62-4.62h0a3.51,3.51,0,0,1,4.8-.6h0a3.21,3.21,0,0,1,.62,4.61v0h0a3.52,3.52,0,0,1-4.81.48Zm8.37-10.42h0a3.2,3.2,0,0,1-.78-4.58c0-.06.08-.1.12-.15h0a3.49,3.49,0,0,1,4.78-.61h0A3.22,3.22,0,0,1-3.11,871h0a3.53,3.53,0,0,1-4.81.63l0,0ZM.43,861.25h0a3.22,3.22,0,0,1-.63-4.61h0A3.51,3.51,0,0,1,4.6,856h0a3.22,3.22,0,0,1,.62,4.63h0a3.51,3.51,0,0,1-4.81.44h0ZM8.8,850.83h0a3.22,3.22,0,0,1-.62-4.62h0a3.51,3.51,0,0,1,4.8-.6h0a3.21,3.21,0,0,1,.62,4.61v0h0a3.5,3.5,0,0,1-4.8.44h0Zm8.38-10.42h0a3.22,3.22,0,0,1-.61-4.63h0a3.5,3.5,0,0,1,4.79-.59h0a3.24,3.24,0,0,1,.62,4.64h0a3.5,3.5,0,0,1-4.81.43l0,0ZM25.55,830h0a3.2,3.2,0,0,1-.62-4.62h0a3.49,3.49,0,0,1,4.78-.59h0a3.21,3.21,0,0,1,.62,4.61v0h0a3.51,3.51,0,0,1-4.81.4Zm8.37-10.41h0A3.2,3.2,0,0,1,33.3,815v0h0a3.49,3.49,0,0,1,4.79-.59h0a3.2,3.2,0,0,1,.62,4.61h0a3.5,3.5,0,0,1-4.8.41h0Zm8.37-10.42h0a3.22,3.22,0,0,1-.63-4.61v0h0a3.51,3.51,0,0,1,4.79-.59h0a3.2,3.2,0,0,1,.62,4.62h0a3.52,3.52,0,0,1-4.82.38Zm8.37-10.42h0a3.23,3.23,0,0,1-.62-4.63h0a3.54,3.54,0,0,1,4.81-.59h0a3.21,3.21,0,0,1,.62,4.61h0a3.52,3.52,0,0,1-4.82.38ZM59,788.32h0a3.21,3.21,0,0,1-.62-4.61v0h0a3.5,3.5,0,0,1,4.78-.59h0a3.23,3.23,0,0,1,.62,4.63h0a3.54,3.54,0,0,1-4.83.34Zm8.38-10.42h0a3.22,3.22,0,0,1-.62-4.63h0a3.52,3.52,0,0,1,4.81-.58h0a3.21,3.21,0,0,1,.62,4.61h0a3.52,3.52,0,0,1-4.82.34Zm8.36-10.42h0a3.2,3.2,0,0,1-.61-4.61v0h0a3.5,3.5,0,0,1,4.79-.59h0a3.2,3.2,0,0,1,.62,4.61h0a3.51,3.51,0,0,1-4.81.34h0Zm8.38-10.42h0a3.23,3.23,0,0,1-.61-4.63h0a3.5,3.5,0,0,1,4.79-.6h0a3.21,3.21,0,0,1,.62,4.62h0a3.51,3.51,0,0,1-4.81.34l0,0Zm8.37-10.42h0A3.21,3.21,0,0,1,91.9,742h0a3.53,3.53,0,0,1,4.81-.6h0a3.21,3.21,0,0,1,.62,4.61h0a3.5,3.5,0,0,1-4.82.31Zm8.37-10.42h0a3.21,3.21,0,0,1-.62-4.61h0a3.5,3.5,0,0,1,4.8-.6h0a3.22,3.22,0,0,1,.62,4.62h0a3.53,3.53,0,0,1-4.83.3Zm8.38-10.42h0a3.2,3.2,0,0,1-.62-4.62h0a3.49,3.49,0,0,1,4.78-.6h0a3.21,3.21,0,0,1,.62,4.61h0a3.52,3.52,0,0,1-4.81.28Zm8.36-10.42h0a3.21,3.21,0,0,1-.62-4.61h0a3.52,3.52,0,0,1,4.8-.6h0a3.2,3.2,0,0,1,.62,4.61h0a3.49,3.49,0,0,1-4.81.27h0ZM126,705h0a3.23,3.23,0,0,1-.61-4.63h0a3.5,3.5,0,0,1,4.79-.6h0a3.23,3.23,0,0,1,.62,4.63h0a3.51,3.51,0,0,1-4.82.26h0Zm8.37-10.42h0a3.21,3.21,0,0,1-.62-4.62h0a3.53,3.53,0,0,1,4.81-.59h0a3.21,3.21,0,0,1,.62,4.61h0a3.52,3.52,0,0,1-4.82.24Zm8.37-10.42h0a3.21,3.21,0,0,1-.62-4.61h0a3.51,3.51,0,0,1,4.8-.6h0a3.22,3.22,0,0,1,.62,4.62h0a3.52,3.52,0,0,1-4.83.23Zm8.38-10.42h0a3.2,3.2,0,0,1-.62-4.62h0a3.49,3.49,0,0,1,4.78-.6h0a3.21,3.21,0,0,1,.64,4.61h0a3.5,3.5,0,0,1-4.81.21Zm8.36-10.42h0a3.22,3.22,0,0,1-.62-4.62h0a3.54,3.54,0,0,1,4.81-.6h0a3.2,3.2,0,0,1,.62,4.61h0a3.51,3.51,0,0,1-4.82.21Zm8.38-10.42h0a3.23,3.23,0,0,1-.61-4.63h0a3.5,3.5,0,0,1,4.79-.6h0a3.23,3.23,0,0,1,.62,4.63h0a3.5,3.5,0,0,1-4.82.19h0Zm8.37-10.42h0a3.21,3.21,0,0,1-.62-4.62h0a3.5,3.5,0,0,1,4.79-.6h0a3.21,3.21,0,0,1,.62,4.61h0a3.52,3.52,0,0,1-4.81.18ZM184.61,632h0a3.2,3.2,0,0,1-.62-4.61h0a3.51,3.51,0,0,1,4.8-.6h0a3.23,3.23,0,0,1,.62,4.63h0a3.53,3.53,0,0,1-4.83.16ZM193,621.6h0a3.22,3.22,0,0,1-.62-4.63h0a3.5,3.5,0,0,1,4.78-.6h0a3.22,3.22,0,0,1,.61,4.63h0a3.5,3.5,0,0,1-4.8.15Zm8.36-10.42h0a3.21,3.21,0,0,1-.62-4.61h0a3.52,3.52,0,0,1,4.8-.6h0a3.21,3.21,0,0,1,.62,4.61v0h0a3.53,3.53,0,0,1-4.82.14Zm8.38-10.42h0a3.21,3.21,0,0,1-.62-4.61h0a3.51,3.51,0,0,1,4.8-.6h0a3.23,3.23,0,0,1,.62,4.63h0a3.5,3.5,0,0,1-4.82.12h0Zm8.37-10.42h0a3.21,3.21,0,0,1-.62-4.62h0a3.5,3.5,0,0,1,4.78-.6h0a3.21,3.21,0,0,1,.62,4.61v0h0a3.52,3.52,0,0,1-4.81.1Zm8.37-10.42h0a3.2,3.2,0,0,1-.62-4.61h0a3.5,3.5,0,0,1,4.8-.59h0a3.21,3.21,0,0,1,.62,4.61h0a3.51,3.51,0,0,1-4.82.09Zm8.37-10.42h0a3.23,3.23,0,0,1-.61-4.63h0a3.5,3.5,0,0,1,4.78-.59h0a3.21,3.21,0,0,1,.63,4.62h0a3.51,3.51,0,0,1-4.79.07Zm8.37-10.41h0a3.23,3.23,0,0,1-.62-4.63h0a3.51,3.51,0,0,1,4.81-.58h0a3.21,3.21,0,0,1,.62,4.61h0a3.52,3.52,0,0,1-4.82.06Zm8.38-10.42h0a3.21,3.21,0,0,1-.62-4.61v0h0a3.51,3.51,0,0,1,4.8-.59h0a3.21,3.21,0,0,1,.62,4.62h0a3.51,3.51,0,0,1-4.83.06h0ZM260,538.25h0a3.24,3.24,0,0,1-.62-4.64h0a3.5,3.5,0,0,1,4.78-.59h0a3.21,3.21,0,0,1,.62,4.61h0a3.5,3.5,0,0,1-4.81.05Zm8.37-10.42h0a3.2,3.2,0,0,1-.62-4.61v0h0a3.51,3.51,0,0,1,4.8-.59h0a3.21,3.21,0,0,1,.61,4.62h0a3.53,3.53,0,0,1-4.84,0Z" style="fill:#05f"/></g><g id="ce480581-62b3-4628-b1c2-623fdfbfb385" data-name="46bc3ee7-f4c3-4a2e-9b69-b3b8ca5b6f27"><path id="17c6d36a-887d-42b9-bcd3-2e5851bac2c1" data-name="ab41860d-432c-4ea6-bf88-0f91ce00d035" d="M527.88,203.87h0a3.22,3.22,0,0,1-.61-4.63h0a3.51,3.51,0,0,1,4.79-.6h0a3.23,3.23,0,0,1,.62,4.63h0a3.5,3.5,0,0,1-4.79.61Zm8.37-10.42h0a3.21,3.21,0,0,1-.62-4.62h0a3.53,3.53,0,0,1,4.81-.59h0a3.21,3.21,0,0,1,.62,4.61v0h0a3.51,3.51,0,0,1-4.8.59h0ZM544.6,183h0a3.2,3.2,0,0,1-.62-4.61h0a3.51,3.51,0,0,1,4.8-.6h0a3.23,3.23,0,0,1,.62,4.63h0A3.52,3.52,0,0,1,544.6,183ZM553,172.61h0a3.23,3.23,0,0,1-.61-4.63h0a3.5,3.5,0,0,1,4.78-.6h0a3.2,3.2,0,0,1,.62,4.61v0h0a3.5,3.5,0,0,1-4.78.59Zm8.34-10.42h0a3.21,3.21,0,0,1-.62-4.61h0a3.52,3.52,0,0,1,4.8-.6h0a3.21,3.21,0,0,1,.62,4.61v0h0A3.5,3.5,0,0,1,561.31,162.19Zm8.38-10.42h0a3.21,3.21,0,0,1-.62-4.61h0a3.51,3.51,0,0,1,4.79-.61v0h0a3.23,3.23,0,0,1,.62,4.63h0a3.51,3.51,0,0,1-4.77.52Zm8.37-10.42h0a3.21,3.21,0,0,1-.62-4.62h0a3.53,3.53,0,0,1,4.81-.59h0a3.21,3.21,0,0,1,.62,4.61v0h0a3.52,3.52,0,0,1-4.76.51Zm8.37-10.41h0a3.2,3.2,0,0,1-.62-4.61v0h0a3.5,3.5,0,0,1,4.8-.59h0a3.22,3.22,0,0,1,.62,4.62h0a3.52,3.52,0,0,1-4.77.5Zm8.37-10.42h0a3.24,3.24,0,0,1-.61-4.64h0a3.5,3.5,0,0,1,4.78-.59h0a3.21,3.21,0,0,1,.63,4.62h0a3.5,3.5,0,0,1-4.76.48Zm8.37-10.42h0a3.22,3.22,0,0,1-.67-4.61l.11-.13h0a3.5,3.5,0,0,1,4.79-.6h0a3.21,3.21,0,0,1,.62,4.61v0h0a3.51,3.51,0,0,1-4.8.59h0Zm8.38-10.42h0a3.21,3.21,0,0,1-.62-4.61v0h0a3.51,3.51,0,0,1,4.8-.59h0a3.21,3.21,0,0,1,.62,4.62h0a3.5,3.5,0,0,1-4.77.46Zm8.37-10.42h0a3.22,3.22,0,0,1-.62-4.63h0a3.52,3.52,0,0,1,4.81-.58h0a3.21,3.21,0,0,1,.62,4.61h0a3.5,3.5,0,0,1-4.76.44Zm8.37-10.42h0a3.2,3.2,0,0,1-.62-4.61v0h0a3.51,3.51,0,0,1,4.8-.59h0a3.21,3.21,0,0,1,.61,4.62h0a3.51,3.51,0,0,1-4.76.44Zm8.37-10.42h0A3.22,3.22,0,0,1,636,63.8h0a3.5,3.5,0,0,1,4.79-.6h0a3.21,3.21,0,0,1,.63,4.62h0a3.51,3.51,0,0,1-4.76.41ZM645,58h0a3.21,3.21,0,0,1-.62-4.61h0a3.5,3.5,0,0,1,4.79-.6h0a3.21,3.21,0,0,1,.62,4.61h0a3.51,3.51,0,0,1-4.76.41Zm8.38-10.42h0a3.21,3.21,0,0,1-.62-4.61h0a3.51,3.51,0,0,1,4.8-.6h0a3.22,3.22,0,0,1,.62,4.62h0a3.5,3.5,0,0,1-4.77.4Zm8.37-10.42h0a3.23,3.23,0,0,1-.62-4.63h0a3.49,3.49,0,0,1,4.78-.6h0a3.21,3.21,0,0,1,.62,4.61h0a3.51,3.51,0,0,1-4.75.39Zm8.37-10.42h0a3.2,3.2,0,0,1-.62-4.61h0a3.49,3.49,0,0,1,4.74-.92l.11.07h0A3.22,3.22,0,0,1,675,25.9h0a3.54,3.54,0,0,1-4.82.63h0Zm8.37-10.42h0a3.22,3.22,0,0,1-.62-4.62h0a3.52,3.52,0,0,1,4.8-.6h0a3.23,3.23,0,0,1,.62,4.63h0a3.5,3.5,0,0,1-4.76.35ZM686.89,5.9h0a3.22,3.22,0,0,1-.62-4.62h0a3.53,3.53,0,0,1,4.81-.59h0a3.21,3.21,0,0,1,.62,4.61h0a3.51,3.51,0,0,1-4.76.34Zm8.38-10.42h0a3.21,3.21,0,0,1-.62-4.61h0a3.51,3.51,0,0,1,4.8-.6h0a3.22,3.22,0,0,1,.62,4.62h0a3.5,3.5,0,0,1-4.77.34Zm8.37-10.42h0a3.23,3.23,0,0,1-.62-4.63h0a3.49,3.49,0,0,1,4.78-.6h0a3.23,3.23,0,0,1,.61,4.63h0a3.51,3.51,0,0,1-4.75.32ZM712-25.36h0a3.2,3.2,0,0,1-.62-4.61h0a3.5,3.5,0,0,1,4.79-.6h0a3.2,3.2,0,0,1,.62,4.62h0a3.53,3.53,0,0,1-4.77.32Zm8.37-10.42h0a3.22,3.22,0,0,1-.63-4.61h0a3.52,3.52,0,0,1,4.8-.6h0a3.22,3.22,0,0,1,.62,4.63h0a3.52,3.52,0,0,1-4.76.29Zm8.37-10.42h0a3.22,3.22,0,0,1-.62-4.62h0a3.53,3.53,0,0,1,4.81-.59h0a3.2,3.2,0,0,1,.65,4.26h0a3.5,3.5,0,0,1-4.79.64h0Zm8.37-10.42h0a3.21,3.21,0,0,1-.62-4.61h0a3.51,3.51,0,0,1,4.8-.6h0a3.23,3.23,0,0,1,.62,4.63h0a3.54,3.54,0,0,1-4.77.27ZM745.5-67h0a3.2,3.2,0,0,1-.62-4.62h0a3.5,3.5,0,0,1,4.78-.61h0a3.24,3.24,0,0,1,.61,4.64h0a3.51,3.51,0,0,1-4.75.24Zm8.36-10.42h0a3.2,3.2,0,0,1-.61-4.61h0a3.5,3.5,0,0,1,4.78-.6h0a3.2,3.2,0,0,1,.62,4.61v0h0a3.51,3.51,0,0,1-4.76.23Zm8.38-10.42h0a3.21,3.21,0,0,1-.62-4.61h0a3.52,3.52,0,0,1,4.8-.6h0a3.23,3.23,0,0,1,.62,4.63h0a3.51,3.51,0,0,1-4.77.22Zm8.37-10.42h0a3.23,3.23,0,0,1-.62-4.63h0a3.53,3.53,0,0,1,4.81-.59h0a3.24,3.24,0,0,1,.61,4.64h0a3.52,3.52,0,0,1-4.76.21ZM779-108.72h0a3.21,3.21,0,0,1-.62-4.61h0a3.5,3.5,0,0,1,4.8-.59h0a3.22,3.22,0,0,1,.62,4.62h0a3.53,3.53,0,0,1-4.77.21Zm8.37-10.41h0a3.22,3.22,0,0,1-.62-4.63h0a3.5,3.5,0,0,1,4.8-.59h0a3.21,3.21,0,0,1,.62,4.61h0a3.51,3.51,0,0,1-4.75.19Zm8.36-10.42h0a3.21,3.21,0,0,1-.62-4.61v0h0a3.51,3.51,0,0,1,4.79-.59h0a3.2,3.2,0,0,1,.62,4.61h0a3.52,3.52,0,0,1-4.76.17ZM804.1-140h0a3.21,3.21,0,0,1-.62-4.61v0h0a3.51,3.51,0,0,1,4.8-.59h0a3.21,3.21,0,0,1,.62,4.62h0a3.51,3.51,0,0,1-4.72.16Zm8.37-10.42h0a3.24,3.24,0,0,1-.62-4.64h0a3.52,3.52,0,0,1,4.81-.58h0a3.22,3.22,0,0,1,.61,4.63h0a3.51,3.51,0,0,1-4.76.14Zm8.37-10.42h0a3.21,3.21,0,0,1-.62-4.61v0h0A3.5,3.5,0,0,1,825-166h0a3.22,3.22,0,0,1,.62,4.62h0a3.54,3.54,0,0,1-4.74.13Zm8.38-10.42h0a3.22,3.22,0,0,1-.62-4.63h0a3.51,3.51,0,0,1,4.8-.59h0a3.22,3.22,0,0,1,.63,4.61h0a3.5,3.5,0,0,1-4.76.12Zm8.36-10.42h0a3.21,3.21,0,0,1-.62-4.61h0a3.5,3.5,0,0,1,4.79-.6h0a3.2,3.2,0,0,1,.62,4.61h0a3.5,3.5,0,0,1-4.76.1ZM846-192.07h0a3.21,3.21,0,0,1-.62-4.61h0a3.5,3.5,0,0,1,4.8-.6h0a3.21,3.21,0,0,1,.62,4.62h0a3.52,3.52,0,0,1-4.77.11Zm8.37-10.42h0a3.21,3.21,0,0,1-.62-4.62h0a3.49,3.49,0,0,1,4.78-.61h0a3.22,3.22,0,0,1,.61,4.63h0a3.51,3.51,0,0,1-4.78.08Zm8.37-10.42h0a3.21,3.21,0,0,1-.62-4.61h0a3.49,3.49,0,0,1,4.78-.6h0a3.22,3.22,0,0,1,.62,4.62h0a3.52,3.52,0,0,1-4.77.07Zm8.38-10.42h0a3.2,3.2,0,0,1-.62-4.62h0a3.5,3.5,0,0,1,4.79-.6h0a3.21,3.21,0,0,1,.64,4.61h0a3.5,3.5,0,0,1-4.76.06Zm8.36-10.42h0a3.24,3.24,0,0,1-.62-4.63h0a3.5,3.5,0,0,1,4.79-.6h0a3.22,3.22,0,0,1,.61,4.63h0a3.5,3.5,0,0,1-4.75,0Zm8.38-10.42h0a3.21,3.21,0,0,1-.62-4.61h0a3.51,3.51,0,0,1,4.8-.6h0a3.21,3.21,0,0,1,.62,4.62h0a3.51,3.51,0,0,1-4.77,0Zm8.37-10.42h0a3.21,3.21,0,0,1-.62-4.62h0a3.53,3.53,0,0,1,4.81-.6h0a3.21,3.21,0,0,1,.62,4.61h0a3.5,3.5,0,0,1-4.76,0ZM904.56-265h0a3.2,3.2,0,0,1-.62-4.61h0a3.49,3.49,0,0,1,4.78-.6h0a3.22,3.22,0,0,1,.62,4.62h0a3.52,3.52,0,0,1-4.77,0Zm8.38-10.42h0a3.2,3.2,0,0,1-.62-4.62h0a3.5,3.5,0,0,1,4.79-.6h0a3.2,3.2,0,0,1,.63,4.61h0a3.51,3.51,0,0,1-4.76,0Zm8.36-10.42h0a3.23,3.23,0,0,1-.62-4.63h0a3.53,3.53,0,0,1,4.81-.59h0a3.22,3.22,0,0,1,.61,4.63h0a3.5,3.5,0,0,1-4.76,0Zm8.38-10.42h0a3.21,3.21,0,0,1-.62-4.61h0a3.5,3.5,0,0,1,4.79-.6h0a3.21,3.21,0,0,1,.62,4.62h0a3.51,3.51,0,0,1-4.77,0Zm8.37-10.42h0a3.21,3.21,0,0,1-.62-4.62h0a3.51,3.51,0,0,1,4.8-.6h0a3.21,3.21,0,0,1,.62,4.61v0h0a3.51,3.51,0,0,1-4.75-.05Zm8.37-10.42h0a3.22,3.22,0,0,1-.61-4.63h0a3.5,3.5,0,0,1,4.78-.6h0a3.23,3.23,0,0,1,.62,4.63h0a3.52,3.52,0,0,1-4.77-.06Zm8.37-10.42h0a3.22,3.22,0,0,1-.63-4.61h0a3.5,3.5,0,0,1,4.79-.6h0a3.22,3.22,0,0,1,.62,4.63h0a3.51,3.51,0,0,1-4.76-.07Zm8.37-10.42h0a3.22,3.22,0,0,1-.62-4.62h0a3.51,3.51,0,0,1,4.8-.6h0a3.23,3.23,0,0,1,.61,4.64h0a3.51,3.51,0,0,1-4.76-.1Z" style="fill:#05f"/></g></g></g></svg>
