<?xml version="1.0" encoding="utf-8"?>
<!-- Generator: Adobe Illustrator 22.0.1, SVG Export Plug-In . SVG Version: 6.00 Build 0)  -->
<svg xmlns:xlink="http://www.w3.org/1999/xlink" version="1.1" id="Layer_1" xmlns="http://www.w3.org/2000/svg" x="0px" y="0px"
	 viewBox="0 0 1721.9 564.3" style="enable-background:new 0 0 1721.9 564.3;" xml:space="preserve">
<style type="text/css">
	.st0{fill:#465648;}
	.st1{fill:none;stroke:#4C7249;stroke-width:4;stroke-miterlimit:10;}
	.st2{fill:none;stroke:#4C7249;stroke-miterlimit:10;}
</style>
<title>wipe3</title>
<g id="_x39_910b8c7-274c-443c-a183-6ca4c35f424f">
	<polygon class="st0" points="144,0 18,776.9 1613.1,766.2 1547,0 	"/>
	<line class="st1" x1="220.8" y1="-28.6" x2="114" y2="685.5"/>
	<line class="st1" x1="1493.4" y1="-13" x2="1540.4" y2="690"/>
	<path class="st2" d="M139.1,551h1390.2 M145.2,508h1381.2 M151.2,465h1372.4 M157.1,422h1363.6 M163,379h1354.8 M168.9,336h1346.1
		 M174.6,293h1337.5 M180.4,250h1328.9 M186,207h1320.4 M191.6,164h1312 M197.2,121h1303.6 M202.7,78h1295.2 M208.1,35h1288.5
		 M1493.4-13l37.1,582.3 M1440.2-13l34.2,593.3 M1388.7-13l29.5,603.8 M1337.3-13l24.6,613.7 M1286.1-13l19.6,623.2 M1234.9-13
		l14.3,632.2 M1183.8-13l8.9,640.7 M1132.7-13l3.4,648.7 M1081.8-13l-2.3,656.3 M1030.9-13l-8.1,663.3 M980-13L966,656.8 M929.2-13
		l-20.1,675.8 M878.5-13l-26.2,681.4 M829.6-19.7l-34.3,693.1 M779-14.8l-40.6,692.7 M728.3-10.4l-47,692.4 M677.7-6.4l-53.3,691.9
		 M625-13l-57.7,701.6 M574.5-14.8l-64.3,705.9 M525.4-30.4l-72.3,723.6 M474.5-28.2L396,694.7 M423.7-26.4l-84.9,722.2 M372.9-25.1
		l-91.2,721.5 M322-24.2l-97.5,720.6 M271.2-23.8L167.4,696"/>
</g>
</svg>
