<svg xmlns="http://www.w3.org/2000/svg" viewBox="0 0 216.45 216.41"><defs><style>.cls-1{fill:#05f;stroke:#05f;stroke-miterlimit:10;stroke-width:6.76px;}.cls-2{fill:#fff;}</style></defs><title>Layer 5</title><g id="Layer_2" data-name="Layer 2"><g id="Layer_1-2" data-name="Layer 1"><g id="Layer_5" data-name="Layer 5"><path id="_Compound_Path_" data-name="&lt;Compound Path&gt;" class="cls-1" d="M172.77,99.71h40.3V60a16.74,16.74,0,0,0-2.55-4.91c-7.27-9.66-18.21-3.65-27.67-12.74-11.41-11-2.8-26.8-14.19-35.67a18.48,18.48,0,0,0-6.76-3.28H17.4a14,14,0,0,0-14,14V144.69c0,18.56,37.62,17.9,71.23,17.9,7.14,0,14.36,0,21.14-.06-9,3.8-21.87,10.49-21.87,10.49-60.79,31.8-41.4,39.68-32,39.68,7.36,0,99.27.23,139,.32a2.7,2.7,0,0,0,1.57-1.41c1-2.38-33.13-50.87-33.13-50.87,7.84,1.11,60.43-2.84,63.1-7.11a4.53,4.53,0,0,0,.61-1.56v-7.95h-40.3a1.82,1.82,0,0,1,0-3.64h40.3v-6.55h-40.3a1.82,1.82,0,0,1,0-3.64h40.3v-6.56h-40.3a1.82,1.82,0,0,1,0-3.64h40.3v-6.55h-40.3a1.82,1.82,0,0,1,0-3.64h40.3v-6.55h-40.3a1.82,1.82,0,0,1,0-3.64Z"/><path id="_Compound_Path_2" data-name="&lt;Compound Path&gt;" class="cls-2" d="M182.49,211.61c1-2.38-33.13-50.87-33.13-50.87,7.84,1.11,60.43-2.84,63.1-7.11a4.53,4.53,0,0,0,.61-1.56v-7.95h-40.3a1.82,1.82,0,0,1,0-3.64h40.3v-6.55h-40.3a1.82,1.82,0,0,1,0-3.64h40.3v-6.56h-40.3a1.82,1.82,0,0,1,0-3.64h40.3v-6.55h-40.3a1.82,1.82,0,0,1,0-3.64h40.3v-6.55h-40.3a1.82,1.82,0,0,1,0-3.64h40.3V60a16.74,16.74,0,0,0-2.55-4.91c-7.27-9.66-18.21-3.65-27.67-12.74-11.41-11-2.8-26.8-14.19-35.67a18.48,18.48,0,0,0-6.76-3.28H17.4a14,14,0,0,0-14,14V144.69c0,18.56,37.62,17.9,71.23,17.9,27.56,0,56.34-.33,56.34-.33-11.55.9-26.69,12.48-26.73,14.4,0,1.25,4.2,1,5.6,3.3,5.25,8.6-15.43,29.1-15.43,29.1H69.52C48,209.06,37.26,208.32,36,205c-3.44-8.75,38.6-30.85,37.92-32-60.79,31.8-41.4,39.68-32,39.68,7.36,0,99.27.23,139,.32A2.7,2.7,0,0,0,182.49,211.61Zm-44.3-87.79a14,14,0,0,1-14,14H37.66a14,14,0,0,1-14-14V37.3a14,14,0,0,1,14-14h86.52a14,14,0,0,1,14,14Z"/></g></g></g></svg>